<?xml version="1.0" encoding="UTF-8" standalone="no"?>
<!-- Created with Inkscape (http://www.inkscape.org/) -->

<svg
   version="1.1"
   id="svg1"
   width="1792.1863"
   height="1184.5121"
   viewBox="0 0 1792.1863 1184.5121"
   xml:space="preserve"
   xmlns="http://www.w3.org/2000/svg"
   xmlns:svg="http://www.w3.org/2000/svg"><defs
     id="defs1"><filter
       style="color-interpolation-filters:sRGB"
       id="filter41"
       x="-0.0036400568"
       y="0"
       width="1.0036401"
       height="1.0034762"><feFlood
         result="flood"
         in="SourceGraphic"
         flood-opacity="0.498039"
         flood-color="rgb(204,204,204)"
         id="feFlood40" /><feGaussianBlur
         result="blur"
         in="SourceGraphic"
         stdDeviation="0.000000"
         id="feGaussianBlur40" /><feOffset
         result="offset"
         in="blur"
         dx="-6.500000"
         dy="4.103343"
         id="feOffset40" /><feComposite
         result="comp1"
         operator="in"
         in="flood"
         in2="offset"
         id="feComposite40" /><feComposite
         result="comp2"
         operator="over"
         in="SourceGraphic"
         in2="comp1"
         id="feComposite41" /></filter></defs><g
     id="g1"
     transform="translate(-382.82782,-243.58524)"><path
       style="fill:#bc8a45;fill-opacity:1;filter:url(#filter41)"
       d="m 1425,1423.2371 c 0,-0.4196 1.0105,-1.2071 2.2456,-1.75 4.1892,-1.8415 5.0165,-5.6521 5.537,-25.501 l 0.4884,-18.6278 -2.7704,-2.1791 -2.7703,-2.1792 h 8.3573 c 7.7139,0 8.1925,0.1155 6.2159,1.5 -2.0284,1.4207 -2.1593,2.4377 -2.4769,19.25 -0.3064,16.2102 -0.5337,18.1221 -2.6214,22.0392 -1.2572,2.3591 -3.7302,5.1699 -5.4955,6.2463 -3.2481,1.9804 -6.7097,2.6004 -6.7097,1.2016 z m -740.35154,-6.1993 c -14.70873,-4.7412 -20.38004,-23.0906 -11.03177,-35.693 5.2588,-7.0894 15.29429,-10.216 25.88331,-8.0641 l 6,1.2193 0.27104,5 0.27104,5 -2.14287,-3.2873 c -4.17216,-6.4004 -12.66211,-8.1674 -19.00133,-3.9546 -11.49828,7.6412 -10.16601,29.8978 2.17158,36.2778 6.16085,3.1859 15.55611,0.5747 18.11145,-5.0336 1.66579,-3.656 2.42554,-3.0643 1.98582,1.5465 -0.27321,2.8649 -1.06593,4.4943 -2.71104,5.5722 -2.76988,1.8149 -15.70244,2.74 -19.80723,1.4168 z m 66.9888,-0.5026 c -10.85851,-3.871 -16.31698,-16.859 -12.47482,-29.683 1.40305,-4.683 6.86578,-10.5482 11.70918,-12.5719 9.3971,-3.9264 22.04912,-0.4814 27.59148,7.5128 3.79207,5.4696 4.74192,15.7631 2.09428,22.6958 -4.12362,10.7976 -17.17416,16.2336 -28.92012,12.0463 z m 16.42199,-4.2385 c 4.28469,-3.6053 5.9419,-7.9373 5.93517,-15.5146 -0.007,-8.2745 -1.43663,-13.0772 -5.15058,-17.3072 -6.69799,-7.6286 -15.99652,-5.9707 -20.95025,3.7353 -2.55951,5.0149 -2.5668,16.711 -0.0139,22.3312 4.21494,9.2791 13.49013,12.3841 20.17959,6.7553 z M 833,1399.7695 l -14.5,-18.1108 -0.27901,13.169 c -0.32155,15.1764 0.41215,19.1693 3.84182,20.9076 2.16644,1.098 1.67502,1.2369 -4.42359,1.25 l -6.86079,0.015 2.36079,-1.91 c 2.29323,-1.8554 2.37028,-2.4126 2.69295,-19.4716 l 0.33217,-17.5616 -2.72819,-2.5284 -2.7282,-2.5284 h 4.97036 4.97036 l 12.7275,16 c 7.00013,8.8 13.15743,16 13.6829,16 0.94519,0 0.40561,-24.7755 -0.61214,-28.107 -0.27002,-0.8839 -1.49353,-2.0909 -2.71893,-2.6823 -1.82214,-0.8795 -0.95286,-1.0821 4.772,-1.1126 5.71549,-0.03 6.633,0.1708 5,1.0968 -1.1,0.6238 -2.33061,1.6226 -2.73469,2.2196 -0.40408,0.597 -0.74158,10.198 -0.75,21.3355 -0.0118,15.5575 -0.30497,20.2361 -1.26531,20.1902 -0.6875,-0.033 -7.775,-8.2097 -15.75,-18.1707 z m 55.5,16.8761 c -3.94,-1.1826 -4.00453,-1.279 -4.30226,-6.4231 -0.18401,-3.1794 0.10939,-5.2225 0.75,-5.2225 0.57874,0 1.05226,0.6143 1.05226,1.3651 0,2.3367 4.17712,6.811 7.75365,8.3053 2.69751,1.1271 4.13907,1.1901 6.83978,0.2988 3.85055,-1.2708 5.40657,-3.4912 5.40657,-7.7149 0,-3.8988 -2.90911,-6.7398 -10.36189,-10.119 C 887.75628,1393.5615 885,1390.2269 885,1384.2651 c 0,-9.0346 9.5866,-14.186 20.62183,-11.0813 4.76637,1.341 4.88522,1.4692 5.18567,5.5943 0.30954,4.25 -1.16901,5.809 -2.2573,2.3801 -0.32152,-1.013 -1.61097,-2.8061 -2.86546,-3.9846 -5.71865,-5.3724 -13.68474,-2.6109 -13.68474,4.744 0,4.5563 1.20753,5.7592 10.52351,10.4837 4.40345,2.2331 7.66756,4.6521 8.75,6.4846 6.90174,11.6837 -6.97178,22.5029 -22.77351,17.7597 z m 65.52288,-0.823 c -7.40056,-3.8392 -8.39164,-6.6294 -8.85756,-24.9372 -0.37718,-14.821 -0.51654,-15.741 -2.53224,-16.7171 -1.63913,-0.7937 -0.049,-1.0393 6.86692,-1.0606 8.62809,-0.026 8.88356,0.035 6.18212,1.4998 l -2.81789,1.5275 0.31789,15.8697 0.31788,15.8697 2.8481,2.9699 c 3.78828,3.9503 8.71346,4.8388 13.3849,2.4145 6.17435,-3.2042 7.267,-6.6566 7.267,-22.9613 v -14.2336 l -2.75,-1.4919 c -2.65867,-1.4424 -2.51752,-1.4919 4.25,-1.4919 6.625,0 6.85924,0.077 4.37246,1.4277 l -2.62755,1.4278 -0.41186,15.3292 c -0.34759,12.937 -0.71783,15.8518 -2.37246,18.6777 -3.01119,5.1427 -6.42482,7.1586 -13.05749,7.711 -4.85061,0.404 -6.70135,0.078 -10.38022,-1.8309 z m 190.66212,1.1605 c -4.4393,-1.3324 -9.5099,-5.7258 -11.8777,-10.291 -2.886,-5.5646 -3.0996,-16.611 -0.4195,-21.6921 5.1456,-9.7553 14.7668,-14.3184 25.2406,-11.9712 12.1256,2.7174 19.1028,14.7325 16.276,28.0282 -2.6005,12.2316 -16.4248,19.7666 -29.2194,15.9261 z m 17.0064,-5.1629 c 5.8375,-5.484 6.6412,-19.7638 1.6305,-28.97 -3.0953,-5.6872 -6.3024,-8.0502 -10.9257,-8.0502 -10.7059,0 -17.0721,13.4834 -12.9923,27.5174 3.5615,12.2511 14.4296,16.8849 22.2875,9.5028 z m 322.0767,4.121 c -6.2774,-3.3144 -7.1981,-6.2475 -7.5953,-24.1961 -0.3264,-14.7464 -0.4853,-15.8506 -2.4833,-17.25 -1.9646,-1.3761 -1.4602,-1.4919 6.338,-1.4551 8.1737,0.039 8.3731,0.094 5.6531,1.5683 l -2.8194,1.5283 0.3194,15.3623 c 0.367,17.652 1.2574,19.9537 8.6426,22.341 3.6927,1.1937 4.5561,1.1392 7.9109,-0.5 6.1728,-3.0159 7.2625,-6.4747 7.2643,-23.058 v -14.218 l -2.75,-1.4919 c -2.6587,-1.4424 -2.5175,-1.4919 4.25,-1.4919 6.6432,0 6.8653,0.073 4.3574,1.4356 l -2.6426,1.4356 -0.3641,15.2744 c -0.4152,17.4141 -1.753,21.6437 -7.8856,24.9327 -4.626,2.4809 -13.2825,2.3776 -18.197,-0.2172 z m 300.0081,0.4665 c -17.0377,-5.2405 -19.7012,-30.9209 -4.1523,-40.0332 6.0649,-3.5542 11.5412,-4.4961 18.9271,-3.2551 8.1613,1.3712 8.6364,1.7725 8.2639,6.9797 l -0.3149,4.4009 -1.8855,-3.1145 c -2.5357,-4.1882 -6.5447,-6.3855 -11.6508,-6.3855 -8.5498,0 -14.7623,6.6876 -15.6871,16.8868 -1.0243,11.2951 4.3305,20.4172 13.6187,23.2 3.474,1.0408 4.4683,0.9156 8.5962,-1.0827 2.5673,-1.2428 5.1542,-3.3271 5.7487,-4.6319 1.5598,-3.4234 2.8036,-2.9152 2.1483,0.8778 -0.9285,5.3737 -1.0633,5.5145 -6.3689,6.6524 -6.6678,1.43 -11.4303,1.2933 -17.2434,-0.4947 z m -769.2307,-1.8622 c 2.4187,-2.4188 2.4545,-2.7094 2.4545,-19.9275 v -17.4728 l -2.6349,-2.0726 -2.6348,-2.0726 h 8.2456 c 8.0022,0 8.1824,0.052 6.1041,1.75 -2.0715,1.6928 -2.1323,2.3715 -1.8608,20.75 l 0.2808,19 3.5,0.291 c 6.5333,0.5431 11.2877,-1.0942 13.7388,-4.7313 l 2.2612,-3.3555 v 5.1479 5.1479 h -15.9545 -15.9546 z m 62.4545,1.1611 2.5,-1.2639 0.2716,-19.2213 0.2716,-19.2214 h -4.449 c -3.5779,0 -4.8418,0.4993 -6.455,2.5502 -1.1033,1.4026 -2.1994,3.0901 -2.4357,3.75 -0.8645,2.4138 -1.3402,0.078 -0.9266,-4.5502 l 0.4245,-4.75 H 1084.6007 1103 v 5 c 0,2.75 -0.1806,5 -0.4012,5 -0.2207,0 -1.3305,-1.575 -2.4663,-3.5 -1.9252,-3.263 -2.406,-3.5 -7.0988,-3.5 H 1088 v 19.4167 19.4166 l 2.75,1.0044 c 2.1917,0.8005 0.8213,1.0174 -6.75,1.0686 -8.283,0.056 -9.1797,-0.098 -7,-1.1997 z m 128.7775,-0.2633 c 2.1628,-1.5149 2.2225,-2.0622 2.2225,-20.378 0,-18.3676 -0.054,-18.8608 -2.25,-20.4556 -2.1211,-1.5406 -1.5312,-1.6192 10.2953,-1.372 14.2377,0.2977 17.0566,1.3685 19.5949,7.4437 2.3443,5.6106 -0.026,11.4056 -6.0709,14.8432 -1.6583,0.943 -1.4305,1.6597 2.8603,9 2.5642,4.3865 5.879,8.9857 7.3663,10.2204 l 2.7041,2.2451 h -4.5757 c -5.5281,0.01 -7.5651,-1.8462 -12.9075,-11.7364 -3.2226,-5.9657 -4.0292,-6.7957 -6.8754,-7.0751 l -3.2244,-0.3164 0.2915,8.2901 c 0.2708,7.7025 0.4687,8.3795 2.7915,9.5517 2.207,1.1137 1.5069,1.2633 -5.9725,1.2764 -7.9514,0.014 -8.3358,-0.081 -6.25,-1.542 z m 18.6777,-21.0645 c 1.9832,-0.761 4.5448,-5.5114 4.5448,-8.428 0,-3.4897 -2.9068,-8.5873 -5.5952,-9.8122 -1.3744,-0.6262 -3.8277,-1.1386 -5.4519,-1.1386 H 1215 v 10 10 h 3.9182 c 2.155,0 4.6467,-0.2795 5.537,-0.6212 z m 46.0448,21.4263 c 1.1,-0.6238 2.3306,-1.6226 2.7347,-2.2196 0.4041,-0.597 0.7347,-8.9605 0.7347,-18.5855 0,-9.625 -0.3306,-17.9885 -0.7347,-18.5855 -0.4041,-0.597 -1.6347,-1.5958 -2.7347,-2.2196 -1.6034,-0.9092 -0.2152,-1.1322 7,-1.1245 8.5733,0.01 8.8686,0.081 6.2286,1.5128 l -2.7715,1.5031 0.2715,19.1782 0.2714,19.1782 2.5,1.2639 c 2.1941,1.1093 1.3989,1.262 -6.5,1.2482 -7.224,-0.013 -8.6053,-0.2394 -7,-1.1497 z m 43.0841,-0.2264 c 1.2396,-0.8682 5.2803,-9.4291 10.3839,-22 4.5952,-11.3183 8.8821,-20.5787 9.5266,-20.5787 0.6444,0 4.6956,9.0254 9.0026,20.0565 5.5299,14.1631 8.557,20.6275 10.3017,22 l 2.4708,1.9435 -8.3848,-0.063 c -6.2975,-0.048 -7.7988,-0.2981 -6.0304,-1.0064 1.295,-0.5187 2.1541,-1.5027 1.9091,-2.1866 -0.245,-0.684 -1.2871,-3.6233 -2.3158,-6.5319 l -1.8704,-5.2882 -7.468,0.2882 -7.468,0.2883 -2.0707,5.8212 c -2.0465,5.753 -2.048,5.8378 -0.1296,7.25 1.761,1.2962 1.3922,1.4288 -3.9725,1.4288 -5.3961,0 -5.736,-0.1244 -3.8845,-1.4213 z m 23.3636,-16.8287 c -0.1123,-2.6834 -5.682,-14.989 -6.3182,-13.9595 -0.7515,1.2159 -5.6295,13.9816 -5.6295,14.7323 0,0.2625 2.7,0.4772 6,0.4772 4.1612,0 5.984,-0.3831 5.9477,-1.25 z m 206.8298,16.6933 c 2.1633,-1.5152 2.2225,-2.06 2.2225,-20.4433 0,-18.4364 -0.054,-18.9254 -2.25,-20.5167 -2.1172,-1.5338 -1.5017,-1.611 10.4275,-1.3067 13.8917,0.3544 16.8177,1.4327 19.6678,7.2484 2.4877,5.0761 -1.3161,13.8986 -6.7772,15.719 -1.1413,0.3804 -1.023,1.0362 0.6159,3.4134 1.1157,1.6184 3.4937,5.4565 5.2845,8.529 1.7907,3.0726 4.4428,6.3231 5.8937,7.2234 l 2.6378,1.637 -4.5275,0.027 c -5.7672,0.034 -8.3545,-1.8127 -11.6192,-8.293 -4.3429,-8.6205 -6.16,-10.6804 -9.4214,-10.6804 H 1553 l 0.015,7.25 c 0.016,7.7401 0.3609,8.7836 3.4847,10.5551 1.6136,0.915 0.3632,1.14 -6.4725,1.1645 -7.9493,0.029 -8.3353,-0.066 -6.25,-1.5263 z m 20.1971,-22.4179 c 2.7646,-2.7646 3.4855,-6.5462 2.1181,-11.1102 -1.3085,-4.3676 -5.0084,-6.9152 -10.043,-6.9152 H 1553 v 10 10 h 4.5 c 3.1473,0 5.0935,-0.5935 6.4746,-1.9746 z m 44.0254,22.6813 2.5,-1.2639 0.2729,-18.9498 c 0.269,-18.6815 0.2407,-18.9746 -2,-20.6992 -2.2191,-1.7079 -2.0749,-1.7499 6.0879,-1.7716 8.2716,-0.022 8.3365,0 6.09,1.8165 -2.2185,1.7965 -2.2687,2.262 -2.1811,20.2339 0.086,17.6432 0.1788,18.4673 2.2708,20.1613 2.1231,1.7192 1.9456,1.7657 -6.6797,1.7514 -7.7979,-0.013 -8.5609,-0.1664 -6.3608,-1.2786 z m 46.1392,-0.6163 c 2.2992,-1.8597 2.3689,-2.3788 2.6726,-19.8788 l 0.3117,-17.9693 -2.8117,-2.2318 -2.8118,-2.2319 13.5,0.433 c 18.1134,0.581 23.8676,3.0965 28.11,12.2884 5.4817,11.8773 -1.494,26.8818 -14.1904,30.5231 -1.8735,0.5373 -8.7467,0.9769 -15.2738,0.9769 -11.8376,0 -11.8614,0 -9.5066,-1.9096 z m 23.841,-2.3404 c 5.2424,-2.6784 7.909,-7.2592 8.6958,-14.938 1.3917,-13.5841 -6.7467,-22.812 -20.1188,-22.812 H 1664 v 20 20 h 4.7881 c 2.9939,0 6.4384,-0.8431 9.1921,-2.25 z m 46.7843,3.2135 c 1.2455,-0.5004 2.633,-1.9344 3.0833,-3.1867 0.4502,-1.2522 0.7669,-9.8656 0.7037,-19.1408 -0.1117,-16.3852 -0.1811,-16.9176 -2.444,-18.75 -2.3264,-1.8838 -2.3195,-1.886 5.9166,-1.886 h 8.2456 l -2.6348,2.0726 -2.6349,2.0726 v 17.4728 c 0,17.2181 0.036,17.5087 2.4545,19.9275 l 2.4546,2.4545 -8.7046,-0.063 c -6.2705,-0.046 -8.0713,-0.3178 -6.44,-0.9731 z m 112.1463,-1.7204 c 1.826,-1.826 5.1997,-9.0015 9.9913,-21.25 3.9789,-10.1712 7.8287,-19.1021 8.5552,-19.8465 1.1,-1.127 2.3561,1.2972 7.5129,14.5 8.7974,22.5238 10.9141,26.9854 13.3648,28.1708 1.6801,0.8127 0.1493,1.0482 -6.835,1.0515 -6.3541,0 -8.3385,-0.2616 -6.75,-0.9001 2.8559,-1.1479 2.8257,-2.61 -0.195,-9.4403 L 1860.1101,1401 h -6.4163 -6.4162 l -2.1388,5.589 c -2.692,7.0347 -2.6775,8.2589 0.1112,9.3798 1.691,0.6798 0.5923,0.9202 -4.4231,0.9678 l -6.6731,0.063 z m 20.2978,-22.7431 c -1.4836,-4.125 -2.9542,-7.5 -3.2681,-7.5 -0.3138,0 -1.6664,3.019 -3.0056,6.7088 -1.3392,3.6899 -2.5849,7.0649 -2.7682,7.5 -0.1834,0.4352 2.383,0.7912 5.703,0.7912 h 6.0364 z M 546.5,1397.4691 c -28.05,-1.2431 -57.525,-2.6316 -65.5,-3.0856 l -14.5,-0.8254 25.5,-0.6614 c 32.62286,-0.8462 60.67699,-1.772 89,-2.9371 12.375,-0.509 23.7375,-0.9332 25.25,-0.9425 2.66873,-0.017 2.75,0.1454 2.75,5.4829 v 5.5 l -5.75,-0.1353 c -3.1625,-0.075 -28.7,-1.1525 -56.75,-2.3956 z m 1395.5,-2.8502 c 0,-4.6859 0.2906,-5.6184 1.75,-5.6157 2.2036,0 46.0616,1.7676 60.75,2.4427 6.05,0.2781 25.5245,0.8045 43.2767,1.1698 17.7522,0.3653 32.1291,0.8119 31.9486,0.9923 -0.1805,0.1805 -10.43,0.7811 -22.7767,1.3348 -22.5922,1.0131 -28.5137,1.2642 -72.4486,3.0718 -13.2,0.5431 -28.1625,1.2655 -33.25,1.6054 l -9.25,0.6178 z m -326.4082,-31.2636 c 3.5816,-3.8793 5.7115,-5.4529 6.8099,-5.0314 0.8791,0.3373 1.5983,1.0356 1.5983,1.5516 0,1.5893 -9.661,9.1245 -11.6987,9.1245 -1.5062,0 -0.7955,-1.2191 3.2905,-5.6447 z m -1193.1422,-61.748 c -10.09582,-1.9322 -17.8249,-4.3147 -25.00918,-7.7091 l -6.26608,-2.9606 -0.55202,-8.2188 c -1.80746,-26.9101 -1.80796,-26.8856 0.54353,-26.5376 1.60069,0.2369 2.6097,1.664 3.92911,5.5571 4.41018,13.0129 11.82826,22.615 21.15649,27.3854 20.0423,10.2494 45.90853,2.5461 51.19211,-15.2456 3.98133,-13.4066 -0.044,-25.5868 -11.29042,-34.1634 -2.68071,-2.0443 -12.24121,-7.5764 -21.24557,-12.2936 -19.26604,-10.093 -27.54939,-15.7617 -32.87321,-22.4969 -5.96577,-7.5472 -8.33909,-14.7198 -8.41263,-25.4242 -0.0555,-8.0814 0.2602,-9.6862 3.0932,-15.7233 5.70894,-12.1657 16.151,-20.6775 29.28507,-23.8717 8.13657,-1.9788 24.93132,-1.5187 34.17482,0.9363 11.20367,2.9757 17.52941,5.9252 18.20976,8.4909 0.31616,1.1923 0.87742,8.1303 1.24725,15.4178 0.59108,11.6472 0.48293,13.25 -0.89405,13.25 -0.97467,0 -3.09909,-3.1664 -5.62331,-8.3814 -6.78131,-14.0102 -17.06519,-21.4736 -30.85998,-22.3964 -8.83857,-0.5912 -14.24225,0.802 -20.37196,5.2524 -6.43819,4.6744 -9.88253,11.7865 -9.88253,20.406 0,13.6454 6.30616,20.213 30.98979,32.2749 31.42296,15.3551 40.26446,23.2053 44.51497,39.5241 2.7367,10.5069 1.37662,22.616 -3.74249,33.3204 -4.68806,9.803 -16.94386,19.0591 -29.89323,22.5767 -7.8275,2.1262 -23.08049,2.6265 -31.41944,1.0306 z m 360.08932,0.3397 c -21.92074,-3.4117 -36.6277,-13.2 -44.08548,-29.3414 -5.82144,-12.5997 -6.45037,-19.2496 -6.4773,-68.4866 -0.0131,-23.9904 -0.43325,-45.3842 -0.93361,-47.5416 -1.22549,-5.2839 -4.04606,-8.8783 -7.87395,-10.0342 -2.0244,-0.6113 -3.16858,-1.6043 -3.16858,-2.75 0,-1.6734 1.57003,-1.7932 23.5,-1.7932 22.83333,0 23.5,0.057 23.5,2 0,1.2851 -0.66667,2 -1.86514,2 -2.5476,0 -6.81268,3.5148 -8.90484,7.3383 -1.5748,2.878 -1.73002,7.6477 -1.73002,53.1617 0,49.5351 0.0213,50.0617 2.29315,56.6347 6.24784,18.0766 19.14244,26.3011 41.20685,26.2827 10.58557,-0.01 17.80234,-2.102 25.90772,-7.5146 10.74297,-7.1739 16.17317,-16.6692 18.18627,-31.8007 0.59297,-4.4571 0.88616,-25.3913 0.7087,-50.6021 -0.29659,-42.1337 -0.34713,-43.0831 -2.50863,-47.1238 -1.59578,-2.9832 -3.32451,-4.5713 -6.25,-5.7419 -2.22423,-0.89 -4.04406,-2.2967 -4.04406,-3.1262 0,-1.2898 2.67808,-1.5081 18.5,-1.5081 17.83333,0 18.5,0.072 18.5,2 0,1.2639 -0.66667,2 -1.81144,2 -2.27416,0 -5.63649,3.0871 -7.92788,7.279 -1.58516,2.8999 -1.81769,7.9063 -2.33255,50.221 -0.63566,52.2421 -0.97676,55.3707 -7.54643,69.2158 -6.64732,14.0088 -18.71636,23.6728 -34.6017,27.7066 -7.54528,1.916 -22.78839,2.6845 -30.24108,1.5246 z m 169.7261,0.054 c -8.19168,-1.152 -17.9804,-3.9751 -27.37111,-7.894 l -7.60609,-3.1741 -0.64391,-7.6175 C 916.28976,1279.1261 916,1271.0098 916,1265.2796 c 0,-10.1116 0.0638,-10.4093 2.16253,-10.0992 1.67741,0.2479 2.65392,1.7777 4.35302,6.8196 6.33566,18.8003 16.2587,28.1607 32.93111,31.0641 12.91946,2.2498 24.41525,-0.7855 32.06671,-8.4669 6.48522,-6.5105 8.96935,-13.6065 8.2556,-23.5821 -0.94441,-13.1994 -7.34928,-19.813 -30.97259,-31.9819 -17.5521,-9.0414 -23.57468,-12.8103 -29.84879,-18.679 C 925.6622,1201.6688 921,1191.3299 921,1179.4238 c 0,-15.451 8.10442,-28.2129 22.5,-35.4304 15.56793,-7.8053 36.53075,-7.5932 56.11323,0.5677 l 6.11327,2.5477 0.6367,6.0923 c 0.3503,3.3507 0.6368,10.7513 0.6368,16.4456 0,12.666 -1.4205,13.5737 -5.3938,3.4466 -5.17369,-13.1869 -10.71793,-19.3039 -21.52668,-23.7505 -6.6651,-2.7419 -16.6783,-3.1013 -23.11689,-0.8296 -10.25873,3.6195 -17.25077,13.0577 -17.32389,23.3847 -0.10748,15.1785 6.36667,21.466 39.17502,38.0457 25.38954,12.8305 33.83384,22.1473 36.37774,40.1364 1.8951,13.4005 -1.4,25.2258 -9.9717,35.7861 -9.9946,12.3132 -32.14364,19.062 -52.95478,16.1352 z M 1104.5,1301.956 c -7.5377,-1.1687 -17.8739,-4.2562 -27.25,-8.1397 l -7.25,-3.0028 v -8.7531 c 0,-4.8142 -0.2953,-12.9127 -0.6561,-17.9967 l -0.6562,-9.2436 2.3504,0.34 c 1.9422,0.281 2.8218,1.6871 5.066,8.0984 3.4611,9.8879 6.7529,15.4763 11.8047,20.0402 18.234,16.4733 50.4632,12.6107 58.8817,-7.057 3.0967,-7.2345 3.6579,-13.1872 1.8347,-19.4588 -3.1662,-10.8916 -9.5643,-16.899 -28.1252,-26.4078 -28.0571,-14.3738 -37.3426,-21.5889 -42.8855,-33.3235 -2.5061,-5.3053 -3.1641,-8.1327 -3.4598,-14.8643 -1.0305,-23.4636 14.4268,-40.413 39.1702,-42.9512 13.0158,-1.3351 30.2815,1.1011 41.3288,5.8317 4.9341,2.1129 4.9701,2.2387 5.8686,20.5435 0.5666,11.5428 0.4497,13.1855 -0.9772,13.7331 -1.0324,0.3962 -1.8305,-0.01 -2.1985,-1.1112 -4.1019,-12.3059 -12.8683,-23.3842 -22.0644,-27.8834 -11.2173,-5.4882 -25.5294,-4.1098 -34.176,3.2914 -6.121,5.2393 -8.5461,10.4728 -8.5204,18.3873 0.044,13.5314 6.6581,20.9133 28.7353,32.0708 20.2508,10.2344 27.466,14.5991 33.4005,20.2049 9.7803,9.2385 14.2784,19.2146 14.2784,31.6673 0,26.8395 -19.1173,44.928 -49.0807,46.4396 -5.1806,0.2614 -12.1193,0.057 -15.4193,-0.4551 z m 1005.2139,-0.5428 c -7.2229,-1.3056 -23.5802,-6.7969 -29.9639,-10.0591 -2.5937,-1.3255 -2.75,-1.7928 -2.75,-8.2241 0,-3.7503 -0.2934,-11.6138 -0.652,-17.4743 L 2075.6961,1255 h 2.4627 c 2.1352,0 2.6946,0.7741 4.2061,5.8203 4.2952,14.3388 11.1442,23.3498 21.6479,28.4811 18.9846,9.2746 42.0122,3.1997 49.1649,-12.9701 4.7262,-10.6845 2.9615,-22.9703 -4.4551,-31.0164 -5.5788,-6.0523 -9.8086,-8.8459 -27.5211,-18.1763 -8.242,-4.3416 -17.0006,-9.2804 -19.4637,-10.975 -6.2545,-4.3032 -13.1416,-12.2495 -16.4425,-18.9714 -2.546,-5.1845 -2.7953,-6.6732 -2.7953,-16.6922 0,-10.2907 0.2054,-11.4336 3.1857,-17.7248 5.1415,-10.8536 15.3303,-19.0962 27.6645,-22.3803 6.7458,-1.7961 24.5241,-1.7487 32.3051,0.086 3.3854,0.7983 9.0852,2.6244 12.6662,4.058 l 6.5108,2.6065 0.5501,4.6772 c 0.3026,2.5725 0.8395,9.7397 1.1931,15.9272 0.8387,14.6719 -0.6184,15.0975 -6.8476,2 -7.0849,-14.8967 -16.0864,-21.7174 -29.7279,-22.5257 -9.0335,-0.5353 -14.2308,0.7352 -20.6154,5.0393 -5.7522,3.8778 -9.2586,10.0992 -10.0512,17.8337 -0.9292,9.0677 0.8798,13.4955 8.5543,20.9388 5.5554,5.388 9.4506,7.9171 22.1757,14.3989 27.1654,13.8371 35.6659,20.4881 41.1421,32.1904 3.6551,7.8109 4.8721,20.6097 2.8044,29.4934 -4.1328,17.7562 -18.4554,30.5755 -38.4313,34.3975 -9.345,1.788 -15.539,1.7633 -25.8647,-0.1032 z m -690.6016,-1.9936 c -13.3721,-3.5963 -25.7793,-13.9081 -30.2422,-25.1349 -3.2944,-8.2873 -3.2874,-23.2987 0.015,-31.6088 4.8124,-12.1107 13.0301,-20.1894 31.4329,-30.9012 l 4.6822,-2.7254 -4.9184,-9.2746 c -6.1502,-11.5973 -8.0816,-18.15 -8.0816,-27.4186 0,-13.6919 6.6119,-24.5564 18.5,-30.3988 4.3393,-2.1325 6.3214,-2.4484 15,-2.3903 11.2529,0.075 16.375,1.7504 22.9171,7.4945 8.7992,7.7258 12.021,22.4759 7.5222,34.4386 -2.7285,7.2554 -12.3663,17.4695 -21.1704,22.4364 l -5.731,3.2332 3.4648,4.5378 c 8.7977,11.522 34.9906,43.2926 35.692,43.2926 1.3288,0 7.8025,-10.4429 10.3115,-16.6337 2.239,-5.5247 2.5919,-5.8848 6.0596,-6.1841 l 3.6822,-0.3177 -0.6719,3.8177 c -0.6757,3.8393 -6.5642,16.684 -10.7541,23.4585 l -2.2517,3.6407 4.9492,5.8593 c 11.5242,13.6434 21.168,21.5287 29.9805,24.5139 3.5871,1.2151 5.0903,2.2803 5.3196,3.7695 0.3122,2.0286 -0.048,2.0759 -15.8158,2.0759 -9.3623,0 -17.0522,-0.4464 -18.3195,-1.0634 -1.2014,-0.5849 -6.0465,-5.1512 -10.767,-10.1473 l -8.5828,-9.0839 -7.1849,6.0327 c -8.3812,7.0372 -18.42,12.5763 -26.7019,14.7335 -7.2832,1.897 -21.1827,1.8715 -28.3354,-0.052 z m 32.5375,-11.8144 c 6.7374,-1.7939 13.9978,-5.8039 19.8334,-10.9541 l 4.7034,-4.151 -5.2729,-6 c -6.7253,-7.6527 -21.2932,-25.994 -31.3737,-39.5 -4.3103,-5.775 -8.1796,-10.887 -8.5984,-11.36 -1.1028,-1.2453 -8.9426,4.455 -14.2581,10.3672 -15.4849,17.2229 -11.1864,48.7916 8.0139,58.8551 7.2768,3.8141 18.601,4.9664 26.9524,2.7428 z m 0.3643,-92.2786 c 3.3704,-3.1205 7.3314,-7.958 8.8022,-10.75 2.3579,-4.4762 2.6747,-6.2092 2.6789,-14.6549 0,-8.9067 -0.2056,-9.9173 -2.9952,-14.4095 -5.1974,-8.3695 -15.7865,-11.4083 -24.7342,-7.098 -6.1008,2.9388 -8.2658,7.5449 -8.2658,17.5859 0,7.148 0.43,9.4177 2.7035,14.2694 3.5244,7.521 12.6774,20.7306 14.3644,20.7306 0.725,0 4.0757,-2.5531 7.4462,-5.6735 z m -872.83365,101.5741 c 0.21703,-1.4258 1.59063,-2.5343 4.28126,-3.4549 4.90886,-1.6797 7.23289,-4.6217 8.25135,-10.4457 0.43282,-2.475 0.78694,-33.2359 0.78694,-68.3575 v -63.8575 l -14,0.1294 c -13.41089,0.1239 -14.26123,0.2564 -20.20803,3.1495 -7.52571,3.6611 -12.57479,9.2638 -15.44671,17.1403 -1.5443,4.2354 -2.61562,5.7958 -3.97925,5.7958 -1.63691,0 -1.86619,-0.8287 -1.86745,-6.75 -8e-4,-3.7125 0.52257,-11.5875 1.16303,-17.5 l 1.16448,-10.75 h 64.66196 64.66195 l 1.17639,15.75 c 1.53476,20.5479 1.54459,20.25 -0.66808,20.25 -1.30434,0 -2.20576,-1.2401 -3.0894,-4.25 -1.69858,-5.7859 -6.45564,-13.0449 -10.64056,-16.2369 -7.06887,-5.3917 -10.81259,-6.3332 -26.42833,-6.6467 l -14.5,-0.2912 v 66.4624 c 0,60.3338 0.15627,66.8073 1.69472,70.2022 1.57565,3.4771 4.19737,5.3428 10.05528,7.1558 0.9625,0.2979 1.75,1.4558 1.75,2.573 0,1.9867 -0.54013,2.0314 -24.56955,2.0314 -24.39203,0 -24.56724,-0.015 -24.25,-2.0994 z M 1222,1297.125 c 0,-1.2869 0.9491,-2.0648 3.0256,-2.4801 4.0172,-0.8035 7.5633,-4.5014 8.8866,-9.2672 0.7147,-2.5743 1.0766,-24.382 1.0766,-64.8777 0,-40.4957 -0.3619,-62.3034 -1.0766,-64.8777 -1.3233,-4.7658 -4.8694,-8.4637 -8.8866,-9.2672 -2.0765,-0.4153 -3.0256,-1.1932 -3.0256,-2.4801 0,-1.7812 1.2,-1.875 24,-1.875 23.3333,0 24,0.056 24,2 0,1.2851 -0.6667,2 -1.8651,2 -2.5476,0 -6.8127,3.5148 -8.9049,7.3383 -1.5887,2.9034 -1.73,8.3499 -1.73,66.6617 0,57.4773 0.1603,63.8536 1.6898,67.2281 1.714,3.7813 6.8683,7.7613 10.0602,7.7682 1.0821,0 1.75,0.767 1.75,2.0037 0,1.9456 -0.6667,2 -24.5,2 -23.2889,0 -24.5,-0.093 -24.5,-1.875 z m 416,0.094 c 0,-1.1869 1.3873,-2.2709 4.1594,-3.25 2.2877,-0.8081 5.1002,-2.7394 6.25,-4.2919 2.0629,-2.7855 2.0943,-3.6783 2.3739,-67.5 0.1558,-35.5725 0.043,-65.6551 -0.2497,-66.8502 -0.9317,-3.7983 -5.4479,-8.2204 -9.0939,-8.9044 -2.3497,-0.4408 -3.4397,-1.195 -3.4397,-2.38 0,-1.5983 2.6152,-1.7867 33.25,-2.3951 32.1085,-0.6377 40.0717,-0.2625 49.7248,2.3428 11.7779,3.1788 21.9025,11.1796 26.3643,20.8339 1.8002,3.8952 2.1609,6.5119 2.1609,15.6757 0,10.0143 -0.25,11.5091 -2.7902,16.6815 -3.9877,8.1198 -12.3809,16.1006 -21.7034,20.637 l -7.7089,3.7512 2.2737,2.9652 c 1.2506,1.6308 9.7463,14.8901 18.8795,29.4651 19.5065,31.1291 25.5036,37.7758 36.0493,39.9543 2.1338,0.4408 3.0956,1.2845 3.3313,2.922 l 0.3312,2.3023 -15.9117,-0.3393 c -15.5306,-0.3312 -15.9971,-0.4044 -19.4725,-3.0572 -4.1423,-3.1618 -14.3581,-17.9861 -32.2389,-46.7821 -7.0012,-11.275 -13.6651,-21.5125 -14.8087,-22.75 -1.9,-2.0559 -2.9768,-2.25 -12.4832,-2.25 h -10.4039 l 0.369,29.75 c 0.2625,21.1529 0.7378,30.6169 1.6449,32.75 1.91,4.4917 5.067,7.3952 8.8024,8.096 2.3867,0.4477 3.3401,1.1657 3.3401,2.5153 0,1.8002 -1.1479,1.8887 -24.5,1.8887 -22.8283,0 -24.5,-0.1215 -24.5,-1.7808 z m 71.0456,-84.3489 c 10.5587,-4.898 16.61,-12.5029 19.0678,-23.9637 2.1602,-10.0725 -2.5235,-23.6779 -10.5022,-30.5074 -6.9241,-5.9268 -13.1421,-7.6278 -29.8612,-8.1691 l -14.75,-0.4776 v 32.4571 c 0,17.8514 0.3375,32.8004 0.75,33.2201 0.4125,0.4197 7.275,0.5943 15.25,0.3881 13.0229,-0.3368 15.0649,-0.637 20.0456,-2.9475 z m 109.1348,83.8797 c 0.2643,-1.8606 1.0984,-2.3365 4.8196,-2.75 3.9332,-0.437 4.7202,-0.9408 6.2484,-4 1.6111,-3.2249 1.7469,-8.5698 1.7281,-68 -0.019,-61.2024 -0.1175,-64.7139 -1.9199,-68.6837 -1.8402,-4.0531 -6.0804,-7.3163 -9.5069,-7.3163 -0.883,0 -1.5497,-0.8604 -1.5497,-2 0,-1.9735 0.6667,-2 50.348,-2 h 50.3481 l 0.6375,10.4201 c 0.3507,5.7311 0.9337,13.6061 1.2956,17.5 0.6252,6.7272 0.5538,7.0799 -1.4345,7.0799 -1.6525,0 -2.4472,-1.1252 -3.779,-5.3503 -2.4011,-7.6172 -7.1304,-13.6272 -13.4951,-17.1497 l -5.4206,-3 -21.75,-0.3199 L 1853,1150.86 V 1181.9301 1213 h 14.3635 c 22.6953,0 28.2554,-1.6896 32.1365,-9.7658 1.197,-2.4907 2.7026,-4.1763 3.75,-4.198 1.6123,-0.033 1.75,1.6167 1.75,20.9638 0,19.8916 -0.099,21 -1.8813,21 -1.382,0 -2.1685,-1.1406 -2.9635,-4.298 -1.413,-5.6115 -4.9897,-10.8313 -8.6925,-12.6859 -2.1864,-1.0951 -7.6134,-1.579 -20.7127,-1.8471 l -17.75,-0.3633 v 32.0154 c 0,17.6084 0.2731,32.7271 0.607,33.5971 0.5297,1.3805 3.6074,1.5818 24.1843,1.5818 22.2517,0 23.8339,-0.1238 28.143,-2.2026 6.2197,-3.0006 13.0982,-10.3052 16.6314,-17.6617 2.0554,-4.2795 3.5018,-6.1133 4.8289,-6.1226 1.7349,-0.012 1.8419,0.5557 1.2689,6.7369 -0.3442,3.7125 -1.3847,11.8125 -2.3122,18 l -1.6865,11.25 h -53.402 -53.4019 z M 1978,1296.5 c 0,-2.1655 0.445,-2.5 3.3257,-2.5 4.907,0 7.5521,-3.3643 8.7637,-11.1462 0.61,-3.9181 0.8849,-29.8022 0.7052,-66.3879 -0.2683,-54.6205 -0.4488,-60.2477 -2.0246,-63.1276 -2.0922,-3.8235 -6.3573,-7.3383 -8.9049,-7.3383 -1.1984,0 -1.8651,-0.7149 -1.8651,-2 0,-1.9444 0.6667,-2 24,-2 23.3333,0 24,0.056 24,2 0,1.183 -0.6667,2 -1.632,2 -3.2583,0 -8.167,4.0404 -9.7671,8.0394 -1.4086,3.5205 -1.6009,11.5702 -1.6009,67.013 0,67.7177 0,67.7337 5.1169,71.3169 1.2804,0.8969 3.578,1.6307 5.1056,1.6307 2.296,0 2.7775,0.4334 2.7775,2.5 v 2.5 h -24 -24 z m -722.0265,-214.3258 c -3.6576,-6.9991 -11.2921,-14.6273 -17.2717,-17.2574 -6.5261,-2.8705 -19.3763,-3.5633 -70.2018,-3.7851 -32.5707,-0.1421 -107.7212,-1.0572 -215.5,-2.6241 -21.725,-0.3158 -88.775,-1.2417 -149,-2.0575 -60.225,-0.8158 -128.4,-1.9223 -151.5,-2.4588 -23.1,-0.5365 -52.0875,-0.9791 -64.41667,-0.9834 -12.32916,0 -22.22916,-0.1718 -22,-0.3721 0.22917,-0.2004 23.14167,-0.657 50.91667,-1.0147 27.775,-0.3577 84.7,-1.0946 126.5,-1.6375 176.7936,-2.2962 248.45729,-3.0029 361,-3.5598 65.45,-0.3239 121.4274,-0.9984 124.3942,-1.499 11.2756,-1.9026 21.6273,-8.8549 28.6129,-19.2167 l 3.2306,-4.7919 3.237,5.0444 c 6.4482,10.0486 16.0906,16.7728 27.0253,18.8463 3.5108,0.6658 49.0819,1.2564 126,1.6331 66.275,0.3246 128.6,0.8155 138.5,1.0908 9.9,0.2754 76.05,1.2059 147,2.0678 148.3032,1.8017 220.6812,3.0061 195.5,3.2533 -9.625,0.094 -35.5,0.5913 -57.5,1.1042 -22,0.5128 -56.425,1.1987 -76.5,1.5241 -104.9981,1.7021 -162.935,2.5334 -214,3.0709 -31.075,0.327 -58.75,0.7542 -61.5,0.9492 -2.75,0.195 -47.3,0.6414 -99,0.992 -51.7,0.3505 -97.15,1.0764 -101,1.6131 -12.4986,1.7423 -19.0392,6.301 -26.2036,18.2637 l -3.8803,6.4792 z m -693.161,-29.8573 c 0.72187,-0.2889 1.58438,-0.2534 1.91667,0.079 0.33229,0.3323 -0.25834,0.5687 -1.3125,0.5253 -1.16495,-0.048 -1.4019,-0.285 -0.60417,-0.6042 z m 1358.4565,-0.01 c 0.973,-0.2535 2.323,-0.2369 3,0.037 0.6771,0.2739 -0.119,0.4813 -1.769,0.461 -1.65,-0.02 -2.2039,-0.2445 -1.231,-0.4981 z m -295.9252,-79.27176 c -20.6441,-1.85903 -38.8321,-6.08848 -54.8438,-12.75348 -12.6171,-5.25196 -36.6084,-20.18638 -48.3682,-30.1089 -7.0509,-5.9493 -27.3117,-28.70862 -35.9706,-40.40642 -7.3249,-9.89563 -60.9696,-88.16736 -100.9312,-147.26644 -12.9295,-19.12136 -20.3685,-27.73567 -31.318,-36.26624 L 1344,698.51153 v -4.70871 c 0,-5.80735 1.6792,-9.71273 4.4214,-10.2831 1.1432,-0.23779 10.0943,-0.9039 19.8912,-1.48025 31.755,-1.86815 47.8189,-6.73811 69.7929,-21.15861 32.1943,-21.12751 49.907,-57.06888 49.8886,-101.23023 -0.013,-31.61513 -7.7401,-56.53715 -24.4009,-78.70139 -15.1559,-20.16217 -36.623,-35.03541 -59.3094,-41.09173 -10.935,-2.91918 -40.0328,-3.90725 -43.7297,-1.48492 -2.2429,1.4696 -10.3904,1.62741 -84.0206,1.62741 h -81.5368 l -3.4171,-4.75 c -1.8793,-2.6125 -5.0516,-6.19446 -7.0494,-7.95991 -3.4858,-3.08032 -3.6202,-3.44364 -3.3313,-9 L 1181.5,412.5 1284,412.20087 c 108.3196,-0.31611 131.7951,0.28133 153.1256,3.89699 23.5417,3.99048 44.6792,10.86918 62.5247,20.34723 24.5848,13.05734 46.5503,36.22166 56.6246,59.71485 7.9803,18.61009 12.5719,44.36797 11.291,63.34006 -2.5294,37.4628 -20.6042,72.43196 -49.4724,95.71344 -25.2112,20.33218 -46.9809,29.28016 -85.9283,35.31891 l -4.3349,0.67211 5.3349,3.5748 c 20.7892,13.93056 27.6756,21.63932 61.8359,69.22074 55.7019,77.58636 90.7293,125.58984 97.8576,134.1096 13.7053,16.38034 24.662,25.65864 44.7979,37.93558 21.4788,13.09566 50.9384,20.94996 78.5934,20.95398 6.048,8.8e-4 6.8782,0.67795 4,3.26197 -3.9759,3.56947 -22.174,8.41778 -41.8332,11.14515 -13.6895,1.89918 -40.8239,2.73201 -53.073,1.62896 z m -419.1416,-6.8014 -27.2979,-0.26616 0.6399,-6.23384 c 0.6648,-6.4782 0.8389,-6.73951 8.2878,-12.44274 1.8842,-1.44258 3.3349,-3.87104 4.1817,-7 0.7132,-2.6351 1.7319,-5.3536 2.2639,-6.0411 0.76,-0.98214 18.7009,-1.25 83.7224,-1.25 65.0004,0 82.9712,0.26818 83.7621,1.25 0.5538,0.6875 1.299,2.61817 1.6558,4.29038 1.0637,4.9838 4.2488,9.24894 8.5429,11.43961 L 1376,952.04065 V 959.02032 966 l -67.75,0.10715 c -37.2625,0.0589 -69.325,0.17144 -71.25,0.25 -1.925,0.0786 -15.784,0.0231 -30.7978,-0.12331 z M 1028,922.00034 c -37.50099,-4.96241 -68.23349,-14.23085 -113.5,-34.22983 -22.37609,-9.88587 -41.40307,-19.31499 -43.88454,-21.74767 -2.06424,-2.02365 -1.96595,-0.91364 -5.0498,-57.02284 -1.53235,-27.88045 -4.05824,-70.31475 -5.04471,-84.75 -0.46184,-6.75822 -0.35919,-7.25 1.51324,-7.25 2.52949,0 3.07716,1.28862 7.96246,18.7348 2.19232,7.82913 5.59971,18.40413 7.57197,23.5 5.27087,13.61867 18.46388,39.94334 25.19118,50.2652 24.04572,36.89391 57.49614,64.5601 97.22898,80.41619 55.30302,22.06962 101.31322,21.08497 141.74502,-3.03345 8.2207,-4.90381 13.2909,-8.93153 21.882,-17.38274 20.1176,-19.78988 31.5898,-41.62688 37.5095,-71.39815 1.8399,-9.25345 2.0383,-12.94328 1.5907,-29.58687 -0.4468,-16.61408 -0.8913,-20.59328 -3.5202,-31.51498 -1.6548,-6.875 -4.151,-15.5251 -5.5471,-19.22245 -6.8071,-18.02763 -20.9255,-40.67669 -34.0794,-54.6706 -2.7881,-2.96618 -9.9214,-9.36689 -15.8518,-14.22381 -23.8409,-19.52535 -43.399,-31.52366 -97.2175,-59.63982 -61.60523,-32.18416 -83.78721,-46.57205 -107.32535,-69.61439 -24.63286,-24.114 -36.74366,-43.88571 -44.17164,-72.11324 -4.2991,-16.33726 -5.34319,-25.70509 -4.72374,-42.38253 1.13011,-30.42556 9.09944,-57.88012 23.69593,-81.63316 26.71516,-43.4739 72.38258,-70.06556 135.0248,-78.62353 14.0976,-1.92596 51.3483,-1.64926 68.5,0.50882 30.2842,3.81046 44.0861,6.90499 95.25,21.35604 l 34.25,9.67379 V 332.20756 388 h -2.3633 c -2.1226,0 -2.8547,-1.34913 -7.1887,-13.24687 -5.706,-15.664 -14.5094,-33.79876 -20.6102,-42.45652 -22.9611,-32.5841 -59.4287,-55.04994 -105.3378,-64.8931 -11.6132,-2.48994 -15.0269,-2.78913 -32,-2.80461 -16.0313,-0.0146 -20.6406,0.33671 -29.5,2.24847 -36.8449,7.95075 -63.47955,23.94301 -78.53135,47.15263 -5.89161,9.08477 -10.73351,19.04554 -14.09678,29 -2.69421,7.97418 -2.87051,9.48978 -2.84982,24.5 0.0218,15.8481 0.0575,16.10306 3.7578,26.85625 7.86236,22.84837 17.74569,37.0522 37.10942,53.33181 17.70953,14.8889 40.77563,28.75016 89.28073,53.65202 67.0433,34.41908 94.39,51.87957 118.4831,75.64967 l 10.653,10.51025 0.4886,36.5 c 0.2687,20.075 0.4249,80.825 0.347,135 l -0.1417,98.5 -2.31,3.23866 c -11.7034,16.40827 -33.0369,33.37267 -55.69,44.28483 -15.4205,7.42815 -34.855,13.16099 -56.2128,16.58184 -15.9221,2.55021 -54.4109,2.76053 -72.2872,0.39501 z m 198.75,-0.77452 -16.75,-0.27418 v -5.08425 c 0,-4.73525 0.3066,-5.36853 4.4664,-9.22582 2.6534,-2.4605 4.9891,-5.76518 5.7542,-8.14157 l 1.2879,-4 56.7046,-0.25824 56.7045,-0.25824 1.5298,5.15132 c 1.0609,3.57227 2.7594,6.28649 5.5412,8.85463 3.5767,3.30197 4.0114,4.20763 4.0114,8.35692 V 921 l -12.75,0.0976 c -39.6718,0.30374 -91.9325,0.36665 -106.5,0.1282 z M 1231,690 V 498 l 26.75,-0.12222 c 14.7125,-0.0672 29.45,-0.15308 32.75,-0.19078 3.3,-0.0377 12.4125,0.0173 20.25,0.12222 L 1325,498 v 192 192 h -10.9921 -10.9921 l -0.2579,-183.89508 c -0.2534,-180.69594 -0.2918,-183.93254 -2.2068,-186.04851 -2.7559,-3.04519 -8.5226,-2.51502 -10.2634,0.94359 -0.9971,1.98126 -1.2613,40.52401 -1.273,185.75 L 1289,882 h -11 -11 V 699.46788 c 0,-199.38384 0.3181,-188.59699 -5.6055,-190.08371 -2.2145,-0.55581 -3.182,-0.17002 -5.0659,2.02017 L 1254,514.11153 V 698.05576 882 h -11.5 -11.5 z m -11.3552,-204.68858 c -0.3547,-0.35461 -0.6448,-1.72434 -0.6448,-3.04383 0,-3.28148 -1.5425,-5.97178 -6.4829,-11.30718 -3.385,-3.65548 -4.3349,-5.52951 -4.8779,-9.62252 -1.1949,-9.00763 -8.5078,-8.22513 72.1854,-7.72394 l 71.6754,0.44517 -0.099,3.30082 c -0.1873,6.24402 -1.5498,9.041 -6.9151,14.19623 -3.0974,2.97607 -5.6386,6.39279 -5.9918,8.05588 -1.2734,5.99699 2.8527,5.58655 -60.1229,5.98065 -31.9449,0.19991 -58.3718,0.0733 -58.7264,-0.28128 z"
       id="path1" /></g></svg>
