<?xml version="1.0" encoding="UTF-8" standalone="no"?>
<!-- Created with Inkscape (http://www.inkscape.org/) -->

<svg
   version="1.1"
   id="svg1"
   width="3678.0977"
   height="3626.5007"
   viewBox="0 0 3678.0976 3626.5008"
   xml:space="preserve"
   sodipodi:docname="logo_sem_sombra_branca.svg"
   inkscape:export-filename="logo_sem_sombra_branca.png"
   inkscape:export-xdpi="96"
   inkscape:export-ydpi="96"
   xmlns:inkscape="http://www.inkscape.org/namespaces/inkscape"
   xmlns:sodipodi="http://sodipodi.sourceforge.net/DTD/sodipodi-0.dtd"
   xmlns:xlink="http://www.w3.org/1999/xlink"
   xmlns="http://www.w3.org/2000/svg"
   xmlns:svg="http://www.w3.org/2000/svg"><sodipodi:namedview
     id="namedview1"
     pagecolor="#ffffff"
     bordercolor="#000000"
     borderopacity="0.25"
     inkscape:showpageshadow="2"
     inkscape:pageopacity="0.0"
     inkscape:pagecheckerboard="0"
     inkscape:deskcolor="#d1d1d1"><inkscape:page
       x="0"
       y="0"
       width="3678.0977"
       height="3626.5007"
       id="page2"
       margin="0"
       bleed="0" /></sodipodi:namedview><defs
     id="defs1"><linearGradient
       id="linearGradient56"
       x1="131.53105"
       y1="106.99338"
       x2="1956.4392"
       y2="1931.9015"
       gradientTransform="matrix(0.64932384,0,0,0.44295114,-1350.0681,-785.44283)"
       gradientUnits="userSpaceOnUse">
      <stop
   offset="0"
   style="stop-color:#c5a467;stop-opacity:1;"
   id="stop50" />
      <stop
   offset="0.4239513"
   style="stop-color:#cea866;stop-opacity:1;"
   id="stop51" />
      <stop
   offset="0.51796412"
   style="stop-color:#fbf3b4;stop-opacity:1;"
   id="stop52" />
      <stop
   offset="0.60289782"
   style="stop-color:#c49f5b;stop-opacity:1;"
   id="stop53" /><stop
   offset="0.86027783"
   style="stop-color:#a78346;stop-opacity:1;"
   id="stop54" /><stop
   offset="1"
   style="stop-color:#f4d585;stop-opacity:1;"
   id="stop55" />
      
    </linearGradient><linearGradient
       id="linearGradient9"><stop
         style="stop-color:#0b1f3a;stop-opacity:1;"
         offset="0"
         id="stop9" /><stop
         style="stop-color:#020f20;stop-opacity:1;"
         offset="1"
         id="stop10" /></linearGradient><linearGradient
       xlink:href="#linearGradient9"
       id="linearGradient10"
       x1="2562.3901"
       y1="-287.74777"
       x2="747.58502"
       y2="1603.0054"
       gradientUnits="userSpaceOnUse"
       gradientTransform="matrix(1.0088473,0,0,0.99999777,1.4482309,0.00209983)" /><filter
       style="color-interpolation-filters:sRGB"
       id="filter13"
       x="-0.069674502"
       y="-0.031023492"
       width="1.1103948"
       height="1.0835442"><feFlood
         result="flood"
         in="SourceGraphic"
         flood-opacity="1.000000"
         flood-color="rgb(0,0,0)"
         id="feFlood12" /><feGaussianBlur
         result="blur"
         in="SourceGraphic"
         stdDeviation="13.981763"
         id="feGaussianBlur12" /><feOffset
         result="offset"
         in="blur"
         dx="-23.860182"
         dy="23.252279"
         id="feOffset12" /><feComposite
         result="comp1"
         operator="in"
         in="flood"
         in2="offset"
         id="feComposite12" /><feComposite
         result="comp2"
         operator="over"
         in="SourceGraphic"
         in2="comp1"
         id="feComposite13" /></filter><linearGradient
       xlink:href="#linearGradient56"
       id="linearGradient50"
       gradientUnits="userSpaceOnUse"
       gradientTransform="matrix(1.2697408,0,0,0.86618275,30.252716,24.906973)"
       x1="708.4884"
       y1="146.70061"
       x2="1302.7627"
       y2="1073.2593" /><filter
       height="1.0107111"
       width="1.0122233"
       y="-0.0053555552"
       x="-0.006111659"
       style="color-interpolation-filters:sRGB"
       id="filter61"><feGaussianBlur
         stdDeviation="0.0026442565"
         result="result1"
         id="feGaussianBlur56" /><feComposite
         in="result1"
         in2="result1"
         result="result4"
         operator="in"
         id="feComposite56" /><feGaussianBlur
         stdDeviation="2"
         result="result6"
         in="result4"
         id="feGaussianBlur57" /><feComposite
         operator="xor"
         in="result6"
         in2="result4"
         result="result8"
         id="feComposite57" /><feComposite
         operator="atop"
         result="fbSourceGraphic"
         in="result4"
         in2="result8"
         id="feComposite58" /><feSpecularLighting
         specularExponent="10"
         specularConstant="1.29999995"
         surfaceScale="3"
         lighting-color="#ffffff"
         result="result1"
         in="fbSourceGraphic"
         id="feSpecularLighting58"><feDistantLight
           azimuth="235"
           elevation="55"
           id="feDistantLight58" /></feSpecularLighting><feComposite
         operator="atop"
         result="result2"
         in="result1"
         in2="fbSourceGraphic"
         id="feComposite59" /><feComposite
         k3="1"
         k2="1"
         operator="arithmetic"
         result="result4"
         in="fbSourceGraphic"
         in2="result2"
         id="feComposite60"
         k1="0"
         k4="0" /><feComposite
         operator="over"
         in="result4"
         in2="SourceGraphic"
         id="feComposite61" /><feBlend
         mode="multiply"
         in2="result2"
         id="feBlend61" /></filter><filter
       style="color-interpolation-filters:sRGB"
       id="filter110"
       x="-0.0078630742"
       y="-0.087260979"
       width="1.0157261"
       height="1.174522"><feGaussianBlur
         stdDeviation="2.3"
         in="SourceAlpha"
         result="result0"
         id="feGaussianBlur107" /><feMorphology
         in="SourceAlpha"
         radius="6.5"
         result="result1"
         id="feMorphology107" /><feGaussianBlur
         stdDeviation="7"
         in="result1"
         id="feGaussianBlur108" /><feColorMatrix
         values="1 0 0 0 0 0 1 0 0 0 0 0 1 0 0 0 0 0 0.3 0"
         result="result91"
         id="feColorMatrix108" /><feComposite
         in="result0"
         operator="out"
         result="result2"
         in2="result91"
         id="feComposite108" /><feDiffuseLighting
         surfaceScale="10"
         id="feDiffuseLighting108"><feDistantLight
           azimuth="225"
           elevation="45"
           id="feDistantLight108" /></feDiffuseLighting><feBlend
         in2="SourceGraphic"
         mode="multiply"
         id="feBlend108" /><feComposite
         in2="SourceAlpha"
         operator="in"
         result="result3"
         id="feComposite109" /><feGaussianBlur
         stdDeviation="1"
         in="result3"
         result="result4"
         id="feGaussianBlur109" /><feComposite
         in2="result3"
         operator="atop"
         id="feComposite110" /></filter><filter
       style="color-interpolation-filters:sRGB"
       id="filter135"
       x="-0.035482594"
       y="-0.27949692"
       width="1.060668"
       height="1.6295959"><feFlood
         result="flood"
         in="SourceGraphic"
         flood-opacity="0.427451"
         flood-color="rgb(4,4,4)"
         id="feFlood134" /><feGaussianBlur
         result="blur"
         in="SourceGraphic"
         stdDeviation="24.316109"
         id="feGaussianBlur134" /><feOffset
         result="offset"
         in="blur"
         dx="-23.860182"
         dy="14.741641"
         id="feOffset134" /><feComposite
         result="comp1"
         operator="in"
         in="flood"
         in2="offset"
         id="feComposite134" /><feComposite
         result="comp2"
         operator="over"
         in="SourceGraphic"
         in2="comp1"
         id="feComposite135" /></filter><filter
       style="color-interpolation-filters:sRGB"
       id="filter244"
       x="-0.049204119"
       y="-0.26132051"
       width="1.0867193"
       height="1.5729461"><feGaussianBlur
         stdDeviation="2.3"
         in="SourceAlpha"
         result="result0"
         id="feGaussianBlur241" /><feMorphology
         in="SourceAlpha"
         radius="6.5"
         result="result1"
         id="feMorphology241" /><feGaussianBlur
         stdDeviation="7"
         in="result1"
         id="feGaussianBlur242" /><feColorMatrix
         values="1 0 0 0 0 0 1 0 0 0 0 0 1 0 0 0 0 0 0.3 0"
         result="result91"
         id="feColorMatrix242" /><feComposite
         in="result0"
         operator="out"
         result="result2"
         in2="result91"
         id="feComposite242" /><feDiffuseLighting
         surfaceScale="10"
         id="feDiffuseLighting242"><feDistantLight
           azimuth="225"
           elevation="45"
           id="feDistantLight242" /></feDiffuseLighting><feBlend
         in2="SourceGraphic"
         mode="multiply"
         id="feBlend242" /><feComposite
         in2="SourceAlpha"
         operator="in"
         result="result3"
         id="feComposite243" /><feGaussianBlur
         stdDeviation="1"
         in="result3"
         result="result4"
         id="feGaussianBlur243" /><feComposite
         in2="result3"
         operator="atop"
         id="feComposite244"
         result="fbSourceGraphic" /><feColorMatrix
         result="fbSourceGraphicAlpha"
         in="fbSourceGraphic"
         values="0 0 0 -1 0 0 0 0 -1 0 0 0 0 -1 0 0 0 0 1 0"
         id="feColorMatrix252" /><feFlood
         id="feFlood252"
         result="flood"
         in="fbSourceGraphic"
         flood-opacity="0.427451"
         flood-color="rgb(4,4,4)" /><feGaussianBlur
         id="feGaussianBlur252"
         result="blur"
         in="fbSourceGraphic"
         stdDeviation="24.316109" /><feOffset
         id="feOffset252"
         result="offset"
         in="blur"
         dx="-23.860182"
         dy="14.741641" /><feComposite
         id="feComposite252"
         result="comp1"
         operator="in"
         in="flood"
         in2="offset" /><feComposite
         id="feComposite253"
         result="fbSourceGraphic"
         operator="over"
         in="fbSourceGraphic"
         in2="comp1" /><feColorMatrix
         result="fbSourceGraphicAlpha"
         in="fbSourceGraphic"
         values="0 0 0 -1 0 0 0 0 -1 0 0 0 0 -1 0 0 0 0 1 0"
         id="feColorMatrix279" /><feColorMatrix
         id="feColorMatrix280"
         values="1.21884 -0 -0 0 0 -0 1.21884 -0 0 0 -0 -0 1.21884 0 0 0 0 0 1 0 "
         in="fbSourceGraphic" /></filter><filter
       style="color-interpolation-filters:sRGB"
       id="filter266"
       x="-0.027047752"
       y="-0.02370154"
       width="1.0540955"
       height="1.0474031"><feGaussianBlur
         stdDeviation="3.5712337"
         in="SourceAlpha"
         result="result0"
         id="feGaussianBlur263" /><feMorphology
         in="SourceAlpha"
         radius="6.5"
         result="result1"
         id="feMorphology263" /><feGaussianBlur
         stdDeviation="7"
         in="result1"
         id="feGaussianBlur264" /><feColorMatrix
         values="1 0 0 0 0 0 1 0 0 0 0 0 1 0 0 0 0 0 0.3 0"
         result="result91"
         id="feColorMatrix264" /><feComposite
         in="result0"
         operator="out"
         result="result2"
         in2="result91"
         id="feComposite264" /><feDiffuseLighting
         surfaceScale="10"
         id="feDiffuseLighting264"><feDistantLight
           azimuth="225"
           elevation="45"
           id="feDistantLight264" /></feDiffuseLighting><feBlend
         in2="SourceGraphic"
         mode="multiply"
         id="feBlend264" /><feComposite
         in2="SourceAlpha"
         operator="in"
         result="result3"
         id="feComposite265" /><feGaussianBlur
         stdDeviation="1"
         in="result3"
         result="result4"
         id="feGaussianBlur265" /><feComposite
         in2="result3"
         operator="atop"
         id="feComposite266"
         result="fbSourceGraphic" /><feColorMatrix
         result="fbSourceGraphicAlpha"
         in="fbSourceGraphic"
         values="0 0 0 -1 0 0 0 0 -1 0 0 0 0 -1 0 0 0 0 1 0"
         id="feColorMatrix276" /><feColorMatrix
         id="feColorMatrix277"
         values="1.46505 -0 -0 0 0 -0 1.46505 -0 0 0 -0 -0 1.46505 0 0 0 0 0 1 0 "
         in="fbSourceGraphic" /></filter><filter
       style="color-interpolation-filters:sRGB"
       id="filter278"
       x="-0.035482593"
       y="-0.27949691"
       width="1.060668"
       height="1.6295959"><feColorMatrix
         values="1.21884 -0 -0 0 0 -0 1.21884 -0 0 0 -0 -0 1.21884 0 0 0 0 0 1 0 "
         id="feColorMatrix278" /></filter><linearGradient
       xlink:href="#linearGradient56"
       id="linearGradient2"
       gradientUnits="userSpaceOnUse"
       gradientTransform="matrix(1.2697408,0,0,0.86618275,30.252716,24.906973)"
       x1="708.4884"
       y1="146.70061"
       x2="1302.7627"
       y2="1073.2593" /></defs><g
     id="g1"
     transform="matrix(1.2451982,0,0,1.2451982,204.28759,642.19713)"><rect
       style="display:inline;fill:url(#linearGradient10);fill-opacity:1;stroke:#ea7460;stroke-width:1.47936;stroke-linecap:round;stroke-linejoin:round"
       id="rect9"
       width="2952.3457"
       height="2910.9089"
       x="-163.32062"
       y="-514.99921" /><path
       id="path62"
       style="display:inline;fill:#5f4821;fill-opacity:1;stroke-width:0;filter:url(#filter13)"
       d="m 1212.3505,117.97189 c -66.8871,-3.61321 -133.0843,18.06248 -175.2813,60.37978 -41.47583,41.59413 -61.30787,101.04627 -52.83226,158.38055 4.16858,28.19816 11.7486,48.2043 27.18646,71.75844 20.448,31.1982 45.3827,52.73033 121.0614,104.53927 91.8743,62.89619 119.498,86.54833 145.7264,124.77191 63.3404,92.3079 50.8363,233.90712 -27.5607,312.10064 -17.3965,17.3514 -33.7628,28.20471 -53.065,35.18914 -31.4975,11.39693 -70.7037,12.19534 -105.3819,2.14611 -65.9892,-19.12287 -112.76382,-74.33266 -128.97261,-152.23092 -2.00476,-9.63401 -3.65738,-17.68536 -3.65738,-17.89211 -0.007,-0.20677 -1.70322,-0.37561 -3.77079,-0.37561 h -3.759 v 85.80905 85.80904 l 3.94754,-0.47577 c 3.532,-0.42568 4.22349,-1.57272 6.56205,-10.89699 2.07826,-8.28577 3.72915,-11.44543 8.0586,-15.41311 4.66811,-4.27793 6.53466,-4.9904 13.06225,-4.9904 9.00855,0 11.84254,1.3574 34.53074,16.53403 38.004,25.42155 66.424,36.89706 100.2086,40.46236 50.464,5.3253 99.4787,-4.0491 138.1243,-26.41764 52.6493,-30.47421 88.9971,-82.51917 99.4134,-142.34438 1.7824,-10.23772 2.6009,-28.22401 3.1772,-69.80381 0.4269,-30.80654 1.2793,-56.01097 1.8943,-56.01097 1.4301,0 8.3643,5.20717 14.8503,11.1533 2.7806,2.54908 29.4433,37.11365 59.2501,76.8107 143.4785,191.0848 145.7021,193.8387 163.0778,201.8801 8.0808,3.7399 10.5471,4.0799 35.0079,4.8255 14.473,0.4411 44.0762,0.6116 65.7856,0.3785 33.2716,-0.3573 39.4711,-0.7661 39.4711,-2.6027 0,-1.1985 -1.8604,-2.5903 -4.1347,-3.0917 -37.7862,-8.3313 -61.0611,-25.39506 -97.2746,-71.321 -10.1081,-12.81884 -47.3576,-60.86229 -82.7777,-106.76198 -35.4199,-45.89969 -68.7595,-89.07824 -74.0886,-95.95335 -5.329,-6.87514 -9.4511,-12.71443 -9.1589,-12.97535 0.2926,-0.2609 5.9865,-1.56586 12.6528,-2.90027 54.8307,-10.97529 104.0647,-46.87933 126.8473,-92.50514 28.1744,-56.42383 24.6538,-125.37221 -9.0706,-177.64988 -26.0031,-40.3089 -73.1384,-70.04541 -131.3324,-82.85428 -35.4198,-7.79614 -34.2801,-7.74567 -186.1489,-8.41063 -86.3366,-0.37806 -142.4726,-0.0781 -142.4726,0.76152 0,0.76208 5.9202,5.37821 13.1566,10.25773 l 13.158,8.87167 117.2863,0.88525 c 101.3268,0.76472 118.8163,1.22366 128.522,3.37162 66.9037,14.80626 106.0238,54.76183 120.5284,123.10157 4.0215,18.94733 4.8305,61.1452 1.523,79.39722 -6.1451,33.91156 -21.4892,65.98647 -41.221,86.16551 -28.4548,29.09977 -61.5568,41.51269 -112.3547,42.13268 l -21.8131,0.26662 -0.9118,-32.33012 c -1.0375,-36.79615 -3.6549,-55.02595 -11.1474,-77.66649 -15.968,-48.25102 -46.7125,-86.93684 -102.2209,-128.62372 -8.2703,-6.21092 -38.5211,-26.90307 -67.2231,-45.98301 -28.7022,-19.07991 -57.7974,-38.93635 -64.6573,-44.12561 -44.8976,-33.964 -62.0981,-65.47876 -61.8674,-113.35202 0.1123,-23.32365 3.1668,-36.54206 13.2036,-57.13926 25.6019,-52.53955 88.0452,-82.05035 157.7133,-74.53497 61.6188,6.64705 107.2298,35.83619 145.6497,93.21069 11.1737,16.68613 27.191,47.38862 32.8147,62.89856 2.521,6.95316 4.1371,9.39751 6.213,9.39751 2.702,0 2.806,-2.82013 2.806,-75.93576 0,-66.03237 -0.2895,-75.93576 -2.2242,-75.93576 -1.2238,0 -3.5637,2.6215 -5.1981,5.82558 -3.835,7.51706 -10.8239,13.34301 -17.5165,14.59855 -11.9938,2.25003 -18.93,0.13147 -42.9723,-13.12264 -28.2931,-15.59761 -43.5698,-22.55784 -64.149,-29.22805 -21.5858,-6.99642 -43.9583,-11.01089 -66.254,-12.2153 z M 989.26711,436.70973 c -0.0497,-0.002 -0.0988,0.006 -0.14729,0.0221 -4.63034,1.54348 -12.87555,41.0686 -14.02705,67.24233 -1.33734,30.40106 2.73809,55.15942 13.49089,81.93957 16.02584,39.91296 39.99614,64.12717 116.08274,117.26421 53.0699,37.06279 77.3856,56.88666 95.7074,78.03031 29.651,34.21805 41.3655,69.44767 37.5665,112.97052 -0.9384,10.7513 -1.7042,21.06885 -1.7042,22.92964 0,2.06854 0.9172,3.38341 2.3582,3.38341 1.5434,0 5.6356,-6.87584 11.8559,-19.92333 24.5859,-51.57089 29.3184,-89.71076 16.2778,-131.19551 -8.1262,-25.85152 -24.1586,-51.76357 -44.6869,-72.22536 -15.6005,-15.54997 -29.2181,-26.02063 -75.2714,-57.88164 -72.9697,-50.48247 -94.5957,-69.20246 -118.4765,-102.5537 -18.1202,-25.30652 -29.49355,-54.05781 -35.72959,-90.32368 -1.02646,-5.96883 -2.28569,-9.64561 -3.2965,-9.67885 z m -50.18392,760.82767 c -8.96796,-0.496 -17.23883,0.099 -24.68394,1.685 9.92562,-0.3087 19.85539,-0.7356 29.79808,-1.2446 -1.74727,-0.1996 -3.46286,-0.3492 -5.11414,-0.4404 z" /><path
       id="path257"
       style="display:none;fill:url(#linearGradient2);fill-opacity:1;stroke-width:0;filter:url(#filter61)"
       d="m 1218.3831,117.97204 c -66.8871,-3.61322 -133.0826,18.06308 -175.2796,60.38039 -41.4759,41.59413 -61.30823,101.04599 -52.83263,158.38028 4.16858,28.19815 11.74783,48.20432 27.18573,71.75847 20.4481,31.19819 45.3832,52.73014 121.0619,104.53908 91.8743,62.8962 119.4986,86.54791 145.727,124.77149 63.3404,92.30789 50.8364,233.90695 -27.5606,312.10048 -17.3964,17.3514 -33.7641,28.20543 -53.0663,35.18986 -31.4975,11.3969 -70.7032,12.19495 -105.3814,2.14575 -65.9892,-19.12287 -112.76479,-74.33184 -128.97359,-152.2301 -2.00476,-9.63401 -3.65623,-17.68699 -3.65623,-17.89374 -0.007,-0.20678 -1.70317,-0.37487 -3.77074,-0.37487 h -3.75975 v 85.80931 85.80932 l 3.94797,-0.47683 c 3.53201,-0.42569 4.22259,-1.57227 6.56115,-10.89654 2.07826,-8.28577 3.72963,-11.44467 8.05908,-15.41234 4.66811,-4.27794 6.53352,-4.99104 13.06111,-4.99104 9.00855,0 11.8445,1.3572 34.5327,16.53382 38.0041,25.42152 66.4236,36.89637 100.2083,40.46167 50.464,5.3253 99.4788,-4.0486 138.1244,-26.41709 52.6492,-30.47421 88.9969,-82.52004 99.4131,-142.34525 1.7825,-10.23772 2.6017,-28.22272 3.1779,-69.80252 0.4269,-30.80654 1.2797,-56.01204 1.8947,-56.01204 1.4301,0 8.3633,5.20766 14.8493,11.15379 2.7806,2.54909 29.4426,37.11521 59.2494,76.81225 143.4785,191.08476 145.7024,193.83726 163.0781,201.87866 8.0807,3.7399 10.5471,4.0807 35.0079,4.8263 14.473,0.4412 44.0761,0.611 65.7855,0.378 33.2716,-0.3574 39.4719,-0.767 39.4719,-2.6037 0,-1.1984 -1.8603,-2.5885 -4.1346,-3.09 -37.7862,-8.3313 -61.0602,-25.39647 -97.2737,-71.32242 -10.1082,-12.81883 -47.3588,-60.86043 -82.7789,-106.76012 -35.42,-45.89969 -68.7602,-89.07943 -74.0893,-95.95454 -5.329,-6.87513 -9.4493,-12.71392 -9.157,-12.97484 0.2925,-0.26091 5.9854,-1.5658 12.6517,-2.9002 54.8308,-10.9753 104.064,-46.87955 126.8466,-92.50536 28.1744,-56.42383 24.6537,-125.37351 -9.0707,-177.65118 -26.0031,-40.3089 -73.1387,-70.04535 -131.3327,-82.85422 -35.4198,-7.79613 -34.2791,-7.74391 -186.1479,-8.40887 -86.3365,-0.37805 -142.4723,-0.0789 -142.4723,0.76074 0,0.76208 5.9204,5.37863 13.1568,10.25815 l 13.1568,8.87158 117.2865,0.88465 c 101.3268,0.76473 118.8161,1.22437 128.5218,3.37233 66.9037,14.80627 106.0241,54.76128 120.5287,123.10101 4.0215,18.94733 4.8305,61.14516 1.523,79.39719 -6.1451,33.91155 -21.489,65.98633 -41.2208,86.16537 -28.4549,29.09978 -61.5572,41.51216 -112.3551,42.13216 l -21.8135,0.26665 -0.9113,-32.32887 c -1.0375,-36.79616 -3.6534,-55.02656 -11.1459,-77.66711 -15.9681,-48.25101 -46.714,-86.9369 -102.2224,-128.62378 -8.2704,-6.21092 -38.5202,-26.90296 -67.2223,-45.9829 -28.7022,-19.07991 -57.7978,-38.93649 -64.6577,-44.12575 -44.8976,-33.964 -62.0981,-65.4778 -61.8674,-113.35106 0.1123,-23.32365 3.1671,-36.54261 13.2039,-57.13981 25.6019,-52.53955 88.044,-82.05015 157.7121,-74.53476 61.6188,6.64705 107.2303,35.83668 145.6501,93.21119 11.1737,16.68613 27.1914,47.38793 32.8151,62.89787 2.521,6.95317 4.137,9.39704 6.2129,9.39704 2.702,0 2.8061,-2.81983 2.8061,-75.93546 0,-66.03237 -0.2894,-75.93545 -2.2241,-75.93545 -1.2238,0 -3.5638,2.62143 -5.1981,5.82551 -3.835,7.51707 -10.8247,13.34273 -17.5173,14.59826 -11.9938,2.25004 -18.929,0.13183 -42.9713,-13.12228 -28.2932,-15.59761 -43.5703,-22.55927 -64.1496,-29.22947 -21.5858,-6.99643 -43.9588,-11.0097 -66.2545,-12.21411 z M 995.25094,436.71052 c -0.0329,0.003 -0.0665,0.01 -0.0988,0.0204 -4.63033,1.54347 -12.87582,41.06895 -14.02732,67.24268 -1.33734,30.40106 2.73965,55.15962 13.49245,81.93977 16.02573,39.91296 39.99683,64.12749 116.08343,117.26453 53.0699,37.06279 77.3833,56.88735 95.7051,78.031 29.651,34.21805 41.3668,69.44705 37.5678,112.9699 -0.9384,10.75129 -1.7034,21.06948 -1.7034,22.93028 0,2.06854 0.9166,3.3833 2.3575,3.3833 1.5435,0 5.6361,-6.87592 11.8564,-19.9234 24.5858,-51.5709 29.3173,-89.71141 16.2766,-131.19617 -8.1262,-25.85152 -24.1574,-51.76253 -44.6857,-72.22432 -15.6005,-15.54996 -29.2187,-26.02229 -75.272,-57.8833 -72.9697,-50.48247 -94.5962,-69.20208 -118.477,-102.55333 -18.1203,-25.30651 -29.4933,-54.05766 -35.72938,-90.32353 -1.04328,-6.06667 -2.3267,-9.76581 -3.34566,-9.6778 z" /><path
       id="path74"
       style="display:inline;fill:url(#linearGradient50);fill-opacity:1;stroke-width:0;filter:url(#filter266)"
       d="m 1218.3831,117.97204 c -66.8871,-3.61322 -133.0826,18.06308 -175.2796,60.38039 -41.4759,41.59413 -61.30823,101.04599 -52.83263,158.38028 4.16858,28.19815 11.74783,48.20432 27.18573,71.75847 20.4481,31.19819 45.3832,52.73014 121.0619,104.53908 91.8743,62.8962 119.4986,86.54791 145.727,124.77149 63.3404,92.30789 50.8364,233.90695 -27.5606,312.10048 -17.3964,17.3514 -33.7641,28.20543 -53.0663,35.18986 -31.4975,11.3969 -70.7032,12.19495 -105.3814,2.14575 -65.9892,-19.12287 -112.76479,-74.33184 -128.97359,-152.2301 -2.00476,-9.63401 -3.65623,-17.68699 -3.65623,-17.89374 -0.007,-0.20678 -1.70317,-0.37487 -3.77074,-0.37487 h -3.75975 v 85.80931 85.80932 l 3.94797,-0.47683 c 3.53201,-0.42569 4.22259,-1.57227 6.56115,-10.89654 2.07826,-8.28577 3.72963,-11.44467 8.05908,-15.41234 4.66811,-4.27794 6.53352,-4.99104 13.06111,-4.99104 9.00855,0 11.8445,1.3572 34.5327,16.53382 38.0041,25.42152 66.4236,36.89637 100.2083,40.46167 50.464,5.3253 99.4788,-4.0486 138.1244,-26.41709 52.6492,-30.47421 88.9969,-82.52004 99.4131,-142.34525 1.7825,-10.23772 2.6017,-28.22272 3.1779,-69.80252 0.4269,-30.80654 1.2797,-56.01204 1.8947,-56.01204 1.4301,0 8.3633,5.20766 14.8493,11.15379 2.7806,2.54909 29.4426,37.11521 59.2494,76.81225 143.4785,191.08476 145.7024,193.83726 163.0781,201.87866 8.0807,3.7399 10.5471,4.0807 35.0079,4.8263 14.473,0.4412 44.0761,0.611 65.7855,0.378 33.2716,-0.3574 39.4719,-0.767 39.4719,-2.6037 0,-1.1984 -1.8603,-2.5885 -4.1346,-3.09 -37.7862,-8.3313 -61.0602,-25.39647 -97.2737,-71.32242 -10.1082,-12.81883 -47.3588,-60.86043 -82.7789,-106.76012 -35.42,-45.89969 -68.7602,-89.07943 -74.0893,-95.95454 -5.329,-6.87513 -9.4493,-12.71392 -9.157,-12.97484 0.2925,-0.26091 5.9854,-1.5658 12.6517,-2.9002 54.8308,-10.9753 104.064,-46.87955 126.8466,-92.50536 28.1744,-56.42383 24.6537,-125.37351 -9.0707,-177.65118 -26.0031,-40.3089 -73.1387,-70.04535 -131.3327,-82.85422 -35.4198,-7.79613 -34.2791,-7.74391 -186.1479,-8.40887 -86.3365,-0.37805 -142.4723,-0.0789 -142.4723,0.76074 0,0.76208 5.9204,5.37863 13.1568,10.25815 l 13.1568,8.87158 117.2865,0.88465 c 101.3268,0.76473 118.8161,1.22437 128.5218,3.37233 66.9037,14.80627 106.0241,54.76128 120.5287,123.10101 4.0215,18.94733 4.8305,61.14516 1.523,79.39719 -6.1451,33.91155 -21.489,65.98633 -41.2208,86.16537 -28.4549,29.09978 -61.5572,41.51216 -112.3551,42.13216 l -21.8135,0.26665 -0.9113,-32.32887 c -1.0375,-36.79616 -3.6534,-55.02656 -11.1459,-77.66711 -15.9681,-48.25101 -46.714,-86.9369 -102.2224,-128.62378 -8.2704,-6.21092 -38.5202,-26.90296 -67.2223,-45.9829 -28.7022,-19.07991 -57.7978,-38.93649 -64.6577,-44.12575 -44.8976,-33.964 -62.0981,-65.4778 -61.8674,-113.35106 0.1123,-23.32365 3.1671,-36.54261 13.2039,-57.13981 25.6019,-52.53955 88.044,-82.05015 157.7121,-74.53476 61.6188,6.64705 107.2303,35.83668 145.6501,93.21119 11.1737,16.68613 27.1914,47.38793 32.8151,62.89787 2.521,6.95317 4.137,9.39704 6.2129,9.39704 2.702,0 2.8061,-2.81983 2.8061,-75.93546 0,-66.03237 -0.2894,-75.93545 -2.2241,-75.93545 -1.2238,0 -3.5638,2.62143 -5.1981,5.82551 -3.835,7.51707 -10.8247,13.34273 -17.5173,14.59826 -11.9938,2.25004 -18.929,0.13183 -42.9713,-13.12228 -28.2932,-15.59761 -43.5703,-22.55927 -64.1496,-29.22947 -21.5858,-6.99643 -43.9588,-11.0097 -66.2545,-12.21411 z M 995.25094,436.71052 c -0.0329,0.003 -0.0665,0.01 -0.0988,0.0204 -4.63033,1.54347 -12.87582,41.06895 -14.02732,67.24268 -1.33734,30.40106 2.73965,55.15962 13.49245,81.93977 16.02573,39.91296 39.99683,64.12749 116.08343,117.26453 53.0699,37.06279 77.3833,56.88735 95.7051,78.031 29.651,34.21805 41.3668,69.44705 37.5678,112.9699 -0.9384,10.75129 -1.7034,21.06948 -1.7034,22.93028 0,2.06854 0.9166,3.3833 2.3575,3.3833 1.5435,0 5.6361,-6.87592 11.8564,-19.9234 24.5858,-51.5709 29.3173,-89.71141 16.2766,-131.19617 -8.1262,-25.85152 -24.1574,-51.76253 -44.6857,-72.22432 -15.6005,-15.54996 -29.2187,-26.02229 -75.272,-57.8833 -72.9697,-50.48247 -94.5962,-69.20208 -118.477,-102.55333 -18.1203,-25.30651 -29.4933,-54.05766 -35.72938,-90.32353 -1.04328,-6.06667 -2.3267,-9.76581 -3.34566,-9.6778 z" /><g
       id="g135"
       style="filter:url(#filter244)"><path
         id="path135"
         style="display:inline;fill:#f6a41f;fill-opacity:1;stroke-width:0"
         d="m 242.33051,1405.2436 c 7.18021,0.7294 14.30287,0.767 21.02766,0.1443 -7.00993,-0.099 -14.01911,-0.1533 -21.02766,-0.1443 z m 1098.79749,85.1207 -13.243,16.8491 c -7.2845,9.2672 -12.834,17.5609 -12.3318,18.4302 0.5024,0.8693 6.3797,8.5118 13.0611,16.984 6.6811,8.4723 12.4861,15.378 12.8996,15.348 0.8338,-0.062 22.5705,-27.4903 24.5709,-31.005 0.9049,-1.5897 -2.454,-7.0924 -11.847,-19.4121 z m 75.57,25.3223 v 8.15 c 0,4.4819 0.2808,8.4311 0.6243,8.7759 1.1699,1.1727 391.7292,-1.948 582.05,-4.6506 53.7564,-0.7633 138.85,-1.8584 189.0967,-2.4328 50.2466,-0.5744 91.1833,-1.2 90.9713,-1.3913 -0.509,-0.4599 -281.809,-3.3384 -502.612,-5.1432 -96.7615,-0.7909 -217.3745,-1.859 -268.0296,-2.3732 z m -151.8709,0.061 -72.5521,0.894 c -39.9037,0.4917 -155.4434,1.5745 -256.75351,2.4061 -101.31037,0.8315 -235.62572,2.1545 -298.4794,2.941 -62.85366,0.7862 -131.53314,1.5634 -152.62223,1.7254 -21.08908,0.1619 -35.29922,0.4901 -31.57755,0.7309 11.30327,0.731 505.33536,6.6504 658.60969,7.8913 78.9805,0.6392 145.7998,1.2732 148.4876,1.4085 l 4.8875,0.2463 v -9.121 z m 641.9614,92.7704 c -2.1534,0 -3.7298,1.4295 -7.0348,5.7863 -2.6878,3.5432 -4.8876,6.8844 -4.8876,7.4238 0,0.5394 1.5543,0.9803 3.4539,0.9803 3.1782,0 16.0796,-11.1645 14.4932,-12.5419 -0.3599,-0.3125 -2.3464,-0.9581 -4.4138,-1.4352 -0.5868,-0.1354 -1.114,-0.2126 -1.6109,-0.2133 z m -1412.13401,20.2951 c -9.67253,-0.1099 -19.68131,3.6659 -26.49083,11.0534 -15.40274,16.7099 -11.13852,43.5353 8.55631,53.824 12.84516,6.7103 25.6389,5.7537 38.14811,-2.8532 6.13963,-4.2241 6.92827,-6.5439 3.25782,-9.5899 -1.87511,-1.5565 -2.91463,-1.5914 -4.88752,-0.1631 -9.07773,6.573 -11.98339,7.7798 -18.8176,7.7798 -9.45808,0.01 -16.92219,-3.6338 -21.27548,-10.3789 -7.3399,-11.3729 -5.99988,-23.8207 3.5982,-33.419 8.92541,-8.9253 22.40595,-9.6758 31.79871,-1.7724 l 4.6648,3.9244 3.27351,-3.3174 3.27508,-3.3174 -4.80753,-4.3339 c -5.45174,-4.9149 -12.77051,-7.3509 -20.29358,-7.4364 z m 1659.04341,0.2071 c -19.3169,-0.4677 -34.7389,13.7613 -34.7695,33.9601 -0.023,15.3969 6.3736,26.3159 18.7815,32.0607 12.3625,5.7235 30.904,2.5968 39.621,-6.6819 3.216,-3.4232 3.2252,-3.5426 0.4235,-6.0781 -2.7215,-2.4628 -3.2027,-2.3674 -10.0919,2.0015 -17.466,11.0766 -37.8116,1.6173 -39.3198,-18.2812 -0.8004,-10.5601 3.9259,-20.0801 12.3757,-24.9301 8.3161,-4.7736 19.4005,-4.0112 27.1025,1.8634 l 5.5181,4.2083 3.2374,-3.3033 3.2375,-3.3033 -5.0836,-4.3009 c -2.7954,-2.3648 -8.4428,-5.1055 -12.5498,-6.0906 -2.885,-0.6921 -5.723,-1.0578 -8.4826,-1.1246 z m -1338.10272,0.1302 c -13.27723,-0.6243 -24.42665,6.9923 -24.42665,19.147 0,9.1502 8.15168,15.8107 23.8808,19.514 13.09063,3.0821 17.68714,10.9109 10.32874,17.5926 -6.77803,6.1546 -19.22683,5.5858 -26.5222,-1.2109 l -3.46173,-3.2249 -3.11666,3.1166 c -2.73382,2.7338 -2.85469,3.4346 -0.98504,5.6938 1.17259,1.4167 4.83882,3.8061 8.14692,5.311 8.20188,3.7307 20.35278,3.6038 27.99191,-0.2933 12.22219,-6.2353 13.96074,-23.8003 3.06333,-30.9407 -2.09944,-1.3756 -8.52715,-3.7124 -14.28456,-5.1934 -11.88815,-3.0578 -14.89158,-5.3347 -14.89158,-11.2934 0,-8.7738 12.3412,-12.4737 23.63767,-7.0866 5.09387,2.4291 5.41137,2.4127 7.52108,-0.3764 3.0736,-4.0635 2.97342,-4.2886 -3.22959,-7.2466 -4.56479,-2.1768 -9.2267,-3.3007 -13.65244,-3.5088 z m -216.93177,0.039 c -22.84712,0.7827 -38.52568,22.195 -31.1964,46.7248 2.25193,7.5362 12.02765,17.7107 19.21757,20.0003 16.64213,5.2999 34.55187,-0.3924 42.6984,-13.5693 12.52702,-20.2618 1.93393,-47.1762 -20.53514,-52.177 -3.51026,-0.7813 -6.92056,-1.0906 -10.18443,-0.9788 z m 602.37489,0.3294 c -11.5022,0.048 -19.7635,3.2284 -25.8806,9.9601 -15.8327,17.4231 -10.3227,45.9857 10.7255,55.5995 13.0998,5.9832 32.0602,2.1491 40.8366,-8.2582 13.5925,-16.1189 9.8218,-41.9761 -7.703,-52.8107 -6.3792,-3.944 -8.7207,-4.5297 -17.9785,-4.4907 z m 275.1006,0.5662 -5.2201,0.4471 -5.22,0.4454 -13.1161,31.576 c -7.2142,17.3675 -13.1646,32.4659 -13.2226,33.5523 -0.071,1.3203 1.4244,1.8193 4.5142,1.5042 4.0596,-0.4139 5.0221,-1.4772 7.9054,-8.7414 l 3.2813,-8.2708 15.4923,-0.4298 15.4924,-0.4297 3.9166,9.077 c 3.6629,8.4892 4.2386,9.0755 8.9076,9.0755 h 4.9911 l -2.6069,-6.4278 c -1.4335,-3.5353 -7.6712,-18.7913 -13.8611,-33.9021 z m 771.269,0 -13.2211,32.0246 c -7.2717,17.6129 -13.5881,32.8684 -14.0352,33.9021 -0.562,1.2991 0.8002,1.8807 4.4092,1.8807 5.0181,0 5.3527,-0.3554 8.5312,-9.0724 l 3.3064,-9.0723 15.7935,0.4266 15.7919,0.4251 3.2845,8.2708 c 2.9727,7.485 3.7611,8.3153 8.3022,8.7508 6.1013,0.5852 6.9342,3.7731 -9.4347,-36.1278 l -12.5184,-30.5141 -5.1055,-0.447 z m -1516.31389,0.1333 -0.41096,24.8471 -0.41252,24.8485 -18.79721,-24.8407 c -17.52014,-23.1549 -19.12611,-24.8486 -23.68159,-24.8486 h -4.88753 v 33.8331 33.8253 h 4.475 4.47658 l 0.41095,-25.8744 0.41095,-25.8744 19.6301,25.4995 c 15.78058,20.4995 20.42216,25.5906 23.68159,25.9732 l 4.05464,0.4753 v -33.9319 -33.932 h -4.475 z m 156.30983,0.011 v 23.9608 c 0,13.3233 0.71277,25.8405 1.6046,28.1943 2.11738,5.5886 7.11091,10.8915 12.67996,13.4673 h 0.002 c 6.56535,3.0366 22.18639,1.9636 27.33312,-1.8791 10.50938,-7.8462 12.42832,-14.4711 12.47762,-43.067 l 0.0361,-20.6763 h -5.26241 -5.26397 v 23.382 c 0,25.5647 -1.14978,30.2393 -8.22848,33.4645 -7.16869,3.2664 -15.27144,2.2544 -20.69356,-2.5865 l -4.91105,-4.3856 -0.47683,-24.938 -0.47684,-24.9364 h -4.40912 z m 106.76168,0 v 33.8315 33.8331 h 21.05118 21.0512 v -4.5095 -4.511 h -16.5401 -16.5401 v -29.3221 -29.322 h -4.5111 z m 79.69518,0 v 3.7598 c 0,3.6239 0.3504,3.7582 9.7735,3.7582 h 9.7735 v 30.0749 30.0717 h 4.4797 4.4781 l 0.4079,-29.6968 0.4078,-29.6969 10.1499,-0.4471 c 9.6528,-0.4228 10.1499,-0.6232 10.1499,-4.133 v -3.6908 h -24.8109 z m 210.5134,0 v 33.8315 33.8284 h 4.5111 4.511 v -12.7819 -12.7803 h 8.0011 8.001 l 7.1745,12.7803 c 6.8656,12.2315 7.3998,12.7819 12.4274,12.7819 h 5.2546 l -5.6263,-10.1515 c -3.0946,-5.5824 -6.5047,-11.4395 -7.5776,-13.0156 -1.7346,-2.5481 -1.2713,-3.4662 4.1817,-8.3053 5.3081,-4.7107 6.2311,-6.465 6.8639,-13.0502 0.8889,-9.252 -2.125,-15.96 -9.0755,-20.1979 -4.0196,-2.4509 -7.6056,-2.9394 -21.7304,-2.9394 z m 99.2437,0 v 33.8315 33.8331 h 4.5111 4.5111 v -33.8331 -33.8315 h -4.5111 z m 248.1062,0 v 25.2266 c 0,27.4213 -0.8137,30.5816 -8.6441,33.5586 -2.9204,1.1105 -5.1943,0.7814 -9.579,-1.3881 -5.6628,-2.8028 -5.7903,-2.8039 -8.4104,0.091 -2.5645,2.8338 -2.5082,3.0702 1.545,6.5565 5.5174,4.7458 17.5028,5.0232 24.8031,0.5725 8.0821,-4.9276 9.3076,-10.0635 9.3076,-39.0092 v -25.6078 h -4.5111 z m 60.1467,0 v 23.9608 c 0,13.3233 0.7112,25.8405 1.603,28.1943 2.1347,5.634 7.1516,10.9294 12.6816,13.3873 11.8432,5.2637 29.3287,0.5362 35.6557,-9.6386 3.1613,-5.0841 3.4814,-7.5715 3.9433,-30.718 l 0.5019,-25.1858 h -4.6381 -4.6366 v 21.8512 c 0,24.7102 -1.5255,30.6601 -8.8292,34.4369 -7.4551,3.8552 -15.8946,3.0632 -21.5971,-2.0281 l -4.911,-4.3856 -0.4768,-24.938 -0.4769,-24.9364 h -4.4107 z m 105.2575,0 v 33.8315 33.8284 h 4.5111 4.511 v -12.8572 -12.8572 l 8.5799,0.4533 8.5782,0.4486 6.8968,12.0306 c 6.1386,10.7071 7.4268,12.0818 11.7201,12.5012 2.6529,0.259 4.8122,-0.079 4.8122,-0.7514 -0.01,-0.6728 -3.051,-6.5473 -6.7666,-13.0517 -3.7155,-6.5047 -6.7541,-12.3146 -6.7541,-12.9136 0,-0.5992 1.6581,-1.8462 3.686,-2.77 7.9217,-3.6095 11.5005,-20.0757 6.1408,-28.2555 -5.1251,-7.822 -10.572,-9.637 -28.9989,-9.637 z m 97.7379,0 v 33.8315 33.8331 h 4.5111 4.5111 v -33.8331 -33.8315 h -4.5111 z m 61.6509,0 v 34.0308 34.0275 l 15.4139,-0.698 c 17.9744,-0.8135 26.434,-3.8517 33.6731,-12.0964 6.2566,-7.1261 8.5306,-14.5674 7.7501,-25.3584 -0.8575,-11.8533 -6.5269,-20.1332 -17.6443,-25.7708 -7.3305,-3.717 -9.7235,-4.1347 -23.6738,-4.1347 z m 105.2575,0 v 33.8315 33.8331 h 4.5111 4.511 v -33.8331 -33.8315 h -4.511 z m -768.3783,7.1211 11.5522,0.7419 c 10.2094,0.6554 11.9579,1.21 15.0375,4.7903 4.5968,5.3442 4.5135,12.0138 -0.2071,16.7346 -3.2665,3.2664 -4.9944,3.6923 -15.0358,3.6923 h -11.3468 V 1650.33 Z m 512.7541,0.066 11.1821,0.5647 c 9.286,0.4688 11.8365,1.178 15.0374,4.1848 5.128,4.8177 5.3037,13.24 0.3733,17.8718 -2.9499,2.7714 -5.2414,3.2704 -15.0374,3.2704 h -11.5554 v -12.9467 z m -1206.26815,0.5161 c 24.07619,0.015 35.72581,34.3821 13.49089,47.9388 -3.32178,2.0253 -7.56494,2.988 -13.17091,2.988 -13.68954,0 -22.81909,-7.9926 -24.88779,-21.7868 -1.8186,-12.1281 7.998,-26.4929 19.59245,-28.6679 1.70918,-0.3207 3.37028,-0.4732 4.97536,-0.4721 z m 601.49495,0.014 c 3.4898,0.095 6.9379,1.1773 10.8809,3.2625 7.6493,4.0448 13.4736,13.562 13.4736,22.0174 0,7.4647 -5.7024,18.146 -11.8768,22.2495 -3.6596,2.432 -7.2851,3.3854 -12.7804,3.3614 -16.0675,-0.072 -25.8539,-10.7006 -24.6886,-26.8124 0.7712,-10.6622 5.1783,-17.4702 13.8611,-21.4135 4.11,-1.8666 7.6404,-2.7596 11.1302,-2.6649 z m 764.915,0.5521 9.9162,0.2164 c 11.5093,0.2521 17.6308,2.9202 23.0746,10.0574 9.9279,13.0163 5.1369,30.227 -10.3743,37.2729 -3.6035,1.6367 -9.6114,2.7735 -14.7598,2.7935 l -8.6818,0.033 0.4125,-25.1874 z m -496.0132,1.9261 6.2897,15.2304 c 3.4598,8.3766 6.2914,15.556 6.2914,15.9535 0,0.3978 -5.4128,0.7231 -12.029,0.7231 -6.6161,0 -12.0306,-0.5435 -12.0306,-1.2062 0,-0.6628 2.5828,-7.8402 5.7392,-15.9519 z m 781.6683,0.6353 c 0.2958,-0.022 2.1617,4.3028 4.2178,9.7845 2.1054,5.6131 4.9088,12.7439 6.2302,15.8452 l 2.4014,5.6388 h -12.0494 c -8.9113,0 -12.0495,-0.5118 -12.0495,-1.9637 0,-1.7078 10.1319,-28.1356 11.2307,-29.2938 l 0.016,-0.01 z" /><path
         id="path63"
         style="display:inline;fill:#ffd275;fill-opacity:1;stroke-width:0"
         d="m 242.33051,1405.2436 c 7.18021,0.7294 14.30287,0.767 21.02766,0.1443 -7.00993,-0.099 -14.01911,-0.1533 -21.02766,-0.1443 z m 1098.79749,85.1207 -13.243,16.8491 c -7.2845,9.2672 -12.834,17.5609 -12.3318,18.4302 0.5024,0.8693 6.3797,8.5118 13.0611,16.984 6.6811,8.4723 12.4861,15.378 12.8996,15.348 0.8338,-0.062 22.5705,-27.4903 24.5709,-31.005 0.9049,-1.5897 -2.454,-7.0924 -11.847,-19.4121 z m 75.57,25.3223 v 8.15 c 0,4.4819 0.2808,8.4311 0.6243,8.7759 1.1699,1.1727 391.7292,-1.948 582.05,-4.6506 53.7564,-0.7633 138.85,-1.8584 189.0967,-2.4328 50.2466,-0.5744 91.1833,-1.2 90.9713,-1.3913 -0.509,-0.4599 -281.809,-3.3384 -502.612,-5.1432 -96.7615,-0.7909 -217.3745,-1.859 -268.0296,-2.3732 z m -151.8709,0.061 -72.5521,0.894 c -39.9037,0.4917 -155.4434,1.5745 -256.75351,2.4061 -101.31037,0.8315 -235.62572,2.1545 -298.4794,2.941 -62.85366,0.7862 -131.53314,1.5634 -152.62223,1.7254 -21.08908,0.1619 -35.29922,0.4901 -31.57755,0.7309 11.30327,0.731 505.33536,6.6504 658.60969,7.8913 78.9805,0.6392 145.7998,1.2732 148.4876,1.4085 l 4.8875,0.2463 v -9.121 z m 641.9614,92.7704 c -2.1534,0 -3.7298,1.4295 -7.0348,5.7863 -2.6878,3.5432 -4.8876,6.8844 -4.8876,7.4238 0,0.5394 1.5543,0.9803 3.4539,0.9803 3.1782,0 16.0796,-11.1645 14.4932,-12.5419 -0.3599,-0.3125 -2.3464,-0.9581 -4.4138,-1.4352 -0.5868,-0.1354 -1.114,-0.2126 -1.6109,-0.2133 z m -1412.13401,20.2951 c -9.67253,-0.1099 -19.68131,3.6659 -26.49083,11.0534 -15.40274,16.7099 -11.13852,43.5353 8.55631,53.824 12.84516,6.7103 25.6389,5.7537 38.14811,-2.8532 6.13963,-4.2241 6.92827,-6.5439 3.25782,-9.5899 -1.87511,-1.5565 -2.91463,-1.5914 -4.88752,-0.1631 -9.07773,6.573 -11.98339,7.7798 -18.8176,7.7798 -9.45808,0.01 -16.92219,-3.6338 -21.27548,-10.3789 -7.3399,-11.3729 -5.99988,-23.8207 3.5982,-33.419 8.92541,-8.9253 22.40595,-9.6758 31.79871,-1.7724 l 4.6648,3.9244 3.27351,-3.3174 3.27508,-3.3174 -4.80753,-4.3339 c -5.45174,-4.9149 -12.77051,-7.3509 -20.29358,-7.4364 z m 1659.04341,0.2071 c -19.3169,-0.4677 -34.7389,13.7613 -34.7695,33.9601 -0.023,15.3969 6.3736,26.3159 18.7815,32.0607 12.3625,5.7235 30.904,2.5968 39.621,-6.6819 3.216,-3.4232 3.2252,-3.5426 0.4235,-6.0781 -2.7215,-2.4628 -3.2027,-2.3674 -10.0919,2.0015 -17.466,11.0766 -37.8116,1.6173 -39.3198,-18.2812 -0.8004,-10.5601 3.9259,-20.0801 12.3757,-24.9301 8.3161,-4.7736 19.4005,-4.0112 27.1025,1.8634 l 5.5181,4.2083 3.2374,-3.3033 3.2375,-3.3033 -5.0836,-4.3009 c -2.7954,-2.3648 -8.4428,-5.1055 -12.5498,-6.0906 -2.885,-0.6921 -5.723,-1.0578 -8.4826,-1.1246 z m -1338.10272,0.1302 c -13.27723,-0.6243 -24.42665,6.9923 -24.42665,19.147 0,9.1502 8.15168,15.8107 23.8808,19.514 13.09063,3.0821 17.68714,10.9109 10.32874,17.5926 -6.77803,6.1546 -19.22683,5.5858 -26.5222,-1.2109 l -3.46173,-3.2249 -3.11666,3.1166 c -2.73382,2.7338 -2.85469,3.4346 -0.98504,5.6938 1.17259,1.4167 4.83882,3.8061 8.14692,5.311 8.20188,3.7307 20.35278,3.6038 27.99191,-0.2933 12.22219,-6.2353 13.96074,-23.8003 3.06333,-30.9407 -2.09944,-1.3756 -8.52715,-3.7124 -14.28456,-5.1934 -11.88815,-3.0578 -14.89158,-5.3347 -14.89158,-11.2934 0,-8.7738 12.3412,-12.4737 23.63767,-7.0866 5.09387,2.4291 5.41137,2.4127 7.52108,-0.3764 3.0736,-4.0635 2.97342,-4.2886 -3.22959,-7.2466 -4.56479,-2.1768 -9.2267,-3.3007 -13.65244,-3.5088 z m -216.93177,0.039 c -22.84712,0.7827 -38.52568,22.195 -31.1964,46.7248 2.25193,7.5362 12.02765,17.7107 19.21757,20.0003 16.64213,5.2999 34.55187,-0.3924 42.6984,-13.5693 12.52702,-20.2618 1.93393,-47.1762 -20.53514,-52.177 -3.51026,-0.7813 -6.92056,-1.0906 -10.18443,-0.9788 z m 602.37489,0.3294 c -11.5022,0.048 -19.7635,3.2284 -25.8806,9.9601 -15.8327,17.4231 -10.3227,45.9857 10.7255,55.5995 13.0998,5.9832 32.0602,2.1491 40.8366,-8.2582 13.5925,-16.1189 9.8218,-41.9761 -7.703,-52.8107 -6.3792,-3.944 -8.7207,-4.5297 -17.9785,-4.4907 z m 275.1006,0.5662 -5.2201,0.4471 -5.22,0.4454 -13.1161,31.576 c -7.2142,17.3675 -13.1646,32.4659 -13.2226,33.5523 -0.071,1.3203 1.4244,1.8193 4.5142,1.5042 4.0596,-0.4139 5.0221,-1.4772 7.9054,-8.7414 l 3.2813,-8.2708 15.4923,-0.4298 15.4924,-0.4297 3.9166,9.077 c 3.6629,8.4892 4.2386,9.0755 8.9076,9.0755 h 4.9911 l -2.6069,-6.4278 c -1.4335,-3.5353 -7.6712,-18.7913 -13.8611,-33.9021 z m 771.269,0 -13.2211,32.0246 c -7.2717,17.6129 -13.5881,32.8684 -14.0352,33.9021 -0.562,1.2991 0.8002,1.8807 4.4092,1.8807 5.0181,0 5.3527,-0.3554 8.5312,-9.0724 l 3.3064,-9.0723 15.7935,0.4266 15.7919,0.4251 3.2845,8.2708 c 2.9727,7.485 3.7611,8.3153 8.3022,8.7508 6.1013,0.5852 6.9342,3.7731 -9.4347,-36.1278 l -12.5184,-30.5141 -5.1055,-0.447 z m -1516.31389,0.1333 -0.41096,24.8471 -0.41252,24.8485 -18.79721,-24.8407 c -17.52014,-23.1549 -19.12611,-24.8486 -23.68159,-24.8486 h -4.88753 v 33.8331 33.8253 h 4.475 4.47658 l 0.41095,-25.8744 0.41095,-25.8744 19.6301,25.4995 c 15.78058,20.4995 20.42216,25.5906 23.68159,25.9732 l 4.05464,0.4753 v -33.9319 -33.932 h -4.475 z m 156.30983,0.011 v 23.9608 c 0,13.3233 0.71277,25.8405 1.6046,28.1943 2.11738,5.5886 7.11091,10.8915 12.67996,13.4673 h 0.002 c 6.56535,3.0366 22.18639,1.9636 27.33312,-1.8791 10.50938,-7.8462 12.42832,-14.4711 12.47762,-43.067 l 0.0361,-20.6763 h -5.26241 -5.26397 v 23.382 c 0,25.5647 -1.14978,30.2393 -8.22848,33.4645 -7.16869,3.2664 -15.27144,2.2544 -20.69356,-2.5865 l -4.91105,-4.3856 -0.47683,-24.938 -0.47684,-24.9364 h -4.40912 z m 106.76168,0 v 33.8315 33.8331 h 21.05118 21.0512 v -4.5095 -4.511 h -16.5401 -16.5401 v -29.3221 -29.322 h -4.5111 z m 79.69518,0 v 3.7598 c 0,3.6239 0.3504,3.7582 9.7735,3.7582 h 9.7735 v 30.0749 30.0717 h 4.4797 4.4781 l 0.4079,-29.6968 0.4078,-29.6969 10.1499,-0.4471 c 9.6528,-0.4228 10.1499,-0.6232 10.1499,-4.133 v -3.6908 h -24.8109 z m 210.5134,0 v 33.8315 33.8284 h 4.5111 4.511 v -12.7819 -12.7803 h 8.0011 8.001 l 7.1745,12.7803 c 6.8656,12.2315 7.3998,12.7819 12.4274,12.7819 h 5.2546 l -5.6263,-10.1515 c -3.0946,-5.5824 -6.5047,-11.4395 -7.5776,-13.0156 -1.7346,-2.5481 -1.2713,-3.4662 4.1817,-8.3053 5.3081,-4.7107 6.2311,-6.465 6.8639,-13.0502 0.8889,-9.252 -2.125,-15.96 -9.0755,-20.1979 -4.0196,-2.4509 -7.6056,-2.9394 -21.7304,-2.9394 z m 99.2437,0 v 33.8315 33.8331 h 4.5111 4.5111 v -33.8331 -33.8315 h -4.5111 z m 248.1062,0 v 25.2266 c 0,27.4213 -0.8137,30.5816 -8.6441,33.5586 -2.9204,1.1105 -5.1943,0.7814 -9.579,-1.3881 -5.6628,-2.8028 -5.7903,-2.8039 -8.4104,0.091 -2.5645,2.8338 -2.5082,3.0702 1.545,6.5565 5.5174,4.7458 17.5028,5.0232 24.8031,0.5725 8.0821,-4.9276 9.3076,-10.0635 9.3076,-39.0092 v -25.6078 h -4.5111 z m 60.1467,0 v 23.9608 c 0,13.3233 0.7112,25.8405 1.603,28.1943 2.1347,5.634 7.1516,10.9294 12.6816,13.3873 11.8432,5.2637 29.3287,0.5362 35.6557,-9.6386 3.1613,-5.0841 3.4814,-7.5715 3.9433,-30.718 l 0.5019,-25.1858 h -4.6381 -4.6366 v 21.8512 c 0,24.7102 -1.5255,30.6601 -8.8292,34.4369 -7.4551,3.8552 -15.8946,3.0632 -21.5971,-2.0281 l -4.911,-4.3856 -0.4768,-24.938 -0.4769,-24.9364 h -4.4107 z m 105.2575,0 v 33.8315 33.8284 h 4.5111 4.511 v -12.8572 -12.8572 l 8.5799,0.4533 8.5782,0.4486 6.8968,12.0306 c 6.1386,10.7071 7.4268,12.0818 11.7201,12.5012 2.6529,0.259 4.8122,-0.079 4.8122,-0.7514 -0.01,-0.6728 -3.051,-6.5473 -6.7666,-13.0517 -3.7155,-6.5047 -6.7541,-12.3146 -6.7541,-12.9136 0,-0.5992 1.6581,-1.8462 3.686,-2.77 7.9217,-3.6095 11.5005,-20.0757 6.1408,-28.2555 -5.1251,-7.822 -10.572,-9.637 -28.9989,-9.637 z m 97.7379,0 v 33.8315 33.8331 h 4.5111 4.5111 v -33.8331 -33.8315 h -4.5111 z m 61.6509,0 v 34.0308 34.0275 l 15.4139,-0.698 c 17.9744,-0.8135 26.434,-3.8517 33.6731,-12.0964 6.2566,-7.1261 8.5306,-14.5674 7.7501,-25.3584 -0.8575,-11.8533 -6.5269,-20.1332 -17.6443,-25.7708 -7.3305,-3.717 -9.7235,-4.1347 -23.6738,-4.1347 z m 105.2575,0 v 33.8315 33.8331 h 4.5111 4.511 v -33.8331 -33.8315 h -4.511 z m -768.3783,7.1211 11.5522,0.7419 c 10.2094,0.6554 11.9579,1.21 15.0375,4.7903 4.5968,5.3442 4.5135,12.0138 -0.2071,16.7346 -3.2665,3.2664 -4.9944,3.6923 -15.0358,3.6923 h -11.3468 V 1650.33 Z m 512.7541,0.066 11.1821,0.5647 c 9.286,0.4688 11.8365,1.178 15.0374,4.1848 5.128,4.8177 5.3037,13.24 0.3733,17.8718 -2.9499,2.7714 -5.2414,3.2704 -15.0374,3.2704 h -11.5554 v -12.9467 z m -1206.26815,0.5161 c 24.07619,0.015 35.72581,34.3821 13.49089,47.9388 -3.32178,2.0253 -7.56494,2.988 -13.17091,2.988 -13.68954,0 -22.81909,-7.9926 -24.88779,-21.7868 -1.8186,-12.1281 7.998,-26.4929 19.59245,-28.6679 1.70918,-0.3207 3.37028,-0.4732 4.97536,-0.4721 z m 601.49495,0.014 c 3.4898,0.095 6.9379,1.1773 10.8809,3.2625 7.6493,4.0448 13.4736,13.562 13.4736,22.0174 0,7.4647 -5.7024,18.146 -11.8768,22.2495 -3.6596,2.432 -7.2851,3.3854 -12.7804,3.3614 -16.0675,-0.072 -25.8539,-10.7006 -24.6886,-26.8124 0.7712,-10.6622 5.1783,-17.4702 13.8611,-21.4135 4.11,-1.8666 7.6404,-2.7596 11.1302,-2.6649 z m 764.915,0.5521 9.9162,0.2164 c 11.5093,0.2521 17.6308,2.9202 23.0746,10.0574 9.9279,13.0163 5.1369,30.227 -10.3743,37.2729 -3.6035,1.6367 -9.6114,2.7735 -14.7598,2.7935 l -8.6818,0.033 0.4125,-25.1874 z m -496.0132,1.9261 6.2897,15.2304 c 3.4598,8.3766 6.2914,15.556 6.2914,15.9535 0,0.3978 -5.4128,0.7231 -12.029,0.7231 -6.6161,0 -12.0306,-0.5435 -12.0306,-1.2062 0,-0.6628 2.5828,-7.8402 5.7392,-15.9519 z m 781.6683,0.6353 c 0.2958,-0.022 2.1617,4.3028 4.2178,9.7845 2.1054,5.6131 4.9088,12.7439 6.2302,15.8452 l 2.4014,5.6388 h -12.0494 c -8.9113,0 -12.0495,-0.5118 -12.0495,-1.9637 0,-1.7078 10.1319,-28.1356 11.2307,-29.2938 l 0.016,-0.01 z" /></g><g
       id="g110"
       style="filter:url(#filter278)"><path
         id="path64"
         style="display:inline;fill:#f6a41f;fill-opacity:1;stroke-width:0;filter:url(#filter135)"
         d="m 257.94205,1197.3716 c -4.07506,0.1546 -7.93062,0.5563 -11.32162,1.2235 -27.08479,5.3286 -44.89276,24.9575 -44.89276,49.4822 0,25.7251 11.81141,40.1041 55.75323,67.8811 28.45852,17.9893 37.56858,30.5944 35.29025,48.8298 -2.25526,18.0496 -15.9089,29.3608 -36.8525,30.5282 -22.17555,1.2362 -37.78421,-8.629 -48.08158,-30.3871 -3.15751,-6.6719 -6.14129,-13.3141 -6.63016,-14.7614 -0.48848,-1.4472 -1.58607,-2.6319 -2.43905,-2.6319 -1.77988,0 -2.00289,12.7485 -0.55055,31.4097 l 0.98189,12.6141 10.74911,4.9659 c 5.91298,2.732 15.78624,5.9568 21.94053,7.1666 20.99386,4.1269 42.92469,2.1764 57.15863,-5.0852 10.3578,-5.284 21.55991,-16.9455 26.35123,-27.4303 3.62938,-7.9419 4.2758,-11.2876 4.2758,-22.1366 0,-25.8824 -10.89262,-39.4136 -50.89081,-63.2147 -24.40637,-14.5231 -34.79219,-23.1154 -39.2194,-32.445 -8.11818,-17.1082 -1.78091,-35.1994 15.01863,-42.8725 7.46055,-3.4076 24.23274,-3.7235 31.71401,-0.5976 11.14312,4.6557 21.24651,16.3655 24.66977,28.5927 1.18248,4.2225 2.75828,6.7823 4.17698,6.7823 1.95821,0 2.16468,-2.6562 1.46344,-18.8914 -0.44859,-10.3905 -1.17855,-19.2543 -1.62186,-19.6975 -0.44331,-0.4435 -5.41869,-2.4885 -11.05653,-4.544 -9.55996,-3.4856 -23.76152,-5.2447 -35.98668,-4.7809 z m 2204.88865,0.071 c -9.0658,-0.5091 -18.1495,0.071 -25.1466,1.8571 -23.1695,5.9139 -38.2009,21.6049 -41.3604,43.1753 -1.1252,7.6812 1.3023,22.0522 4.9126,29.082 4.8839,9.5098 19.5955,22.5333 43.6662,38.6532 35.6235,23.8567 42.31,31.7117 42.38,49.7803 0.079,20.7457 -13.0822,33.8717 -35.4236,35.331 -26.0157,1.6996 -43.1783,-10.8658 -53.5306,-39.1912 -4.8719,-13.3299 -6.5865,-10.3706 -5.9228,10.2158 0.3154,9.7804 1.0317,19.4961 1.5921,21.5908 1.5969,5.9716 14.2086,11.6983 35.4251,16.0836 17.9957,3.7196 39.9185,1.5226 54.3071,-5.4428 9.8812,-4.7835 20.4745,-15.1473 25.3662,-24.8156 6.0629,-11.9831 7.0849,-30.4876 2.3731,-42.9839 -6.6575,-17.6562 -15.7208,-26.0884 -50.0328,-46.5507 -31.1558,-18.5802 -40.4554,-29.0304 -40.6044,-45.6299 -0.1697,-18.8947 13.6543,-31.1682 35.1052,-31.1682 8.3442,0 11.6065,0.7721 18.0333,4.268 9.4619,5.1469 15.2843,12.0863 20.0975,23.9545 1.9815,4.8851 4.6535,9.1004 5.9369,9.3672 2.0486,0.4255 2.219,-1.7788 1.396,-18.0443 -0.5155,-10.1911 -1.4479,-19.0905 -2.0705,-19.7775 -0.6228,-0.6872 -5.7787,-2.9726 -11.4596,-5.0789 -6.9257,-2.5679 -15.9742,-4.1667 -25.04,-4.6758 z m -1517.71454,0.096 c -40.7317,-2.2524 -67.07551,17.9867 -67.04191,51.5072 0.0239,23.9675 9.77812,36.8319 45.77114,60.3631 13.01313,8.5076 26.8177,18.3675 30.67722,21.9108 22.40333,20.5691 17.16,53.0654 -10.01974,62.0932 -9.99636,3.3202 -26.31916,2.4087 -36.43057,-2.0344 -12.40706,-5.4517 -20.51418,-15.5542 -29.64827,-36.9466 -2.21826,-5.1951 -3.62695,-6.9185 -4.74479,-5.8004 -2.05625,2.056 0.79343,40.3655 3.22018,43.2897 2.35145,2.8332 19.77715,9.4251 31.5556,11.9365 31.68906,6.7562 61.97968,-2.3083 76.77931,-22.9758 7.94346,-11.093 10.99134,-21.8146 10.10915,-35.5631 -1.53742,-23.9544 -12.70112,-37.1806 -50.05635,-59.3044 -35.26481,-20.8855 -42.84584,-29.2511 -42.84584,-47.2769 0,-19.1079 13.17067,-31.0427 34.25816,-31.0427 12.67406,0 19.69334,2.785 28.34796,11.2463 5.69499,5.5678 8.61543,10.0311 11.12242,16.9997 1.86967,5.1976 4.09671,9.2167 4.94869,8.9327 2.22708,-0.7425 1.34339,-35.9084 -0.95993,-38.1951 -3.78233,-3.7552 -21.57142,-8.3949 -35.04243,-9.1398 z m 187.38704,0.4517 c -21.1214,0.078 -30.5991,2.7017 -42.5274,11.7718 -13.3851,10.1774 -20.9604,29.916 -17.8734,46.5695 3.8263,20.644 14.0685,32.372 47.1514,53.9871 26.3072,17.188 35.0623,24.8842 39.7763,34.9624 12.6048,26.9481 -7.7108,52.3825 -39.9472,50.0125 -19.8686,-1.4608 -32.3232,-11.2124 -43.1643,-33.8002 -3.864,-8.0509 -7.3946,-13.6244 -8.2834,-13.0752 -0.9963,0.6158 -1.2189,6.1316 -0.6227,15.4515 1.5446,24.1423 2.1525,27.0829 6.1204,29.6828 5.099,3.3408 22.9496,9.3486 32.4858,10.9326 36.1331,6.0015 67.1439,-6.7512 79.2575,-32.5939 3.468,-7.3989 4.0155,-10.5113 4.0155,-22.8503 0,-12.4236 -0.5361,-15.4291 -4.1143,-23.0668 -6.0997,-13.0208 -18.0427,-23.6432 -44.1069,-39.2272 -27.3846,-16.3733 -34.8936,-22.4113 -40.3597,-32.4544 -3.7161,-6.8284 -4.1505,-8.987 -3.6374,-18.0694 0.4963,-8.7822 1.2629,-11.1568 5.1667,-15.9801 7.204,-8.9009 15.5461,-12.5482 28.6946,-12.5482 8.7571,0 12.5825,0.7626 18.1823,3.6248 11.3924,5.8226 20.4537,17.3774 23.4762,29.9385 0.5613,2.3331 1.7912,3.9844 2.7339,3.6703 2.11,-0.7034 1.6728,-35.5826 -0.4784,-38.1747 -0.7818,-0.9419 -6.3111,-3.3156 -12.2863,-5.2734 -9.1497,-2.998 -13.8289,-3.548 -29.6592,-3.49 z m -746.88162,3.6892 -0.96464,12.4055 c -1.50592,19.345 -1.26658,25.1873 1.03366,25.1873 1.10954,0 2.86413,-2.8268 3.89935,-6.2819 4.91256,-16.3967 10.20831,-18.9433 42.12432,-20.2591 l 24.1349,-0.996 v 86.0932 c 0,97.8633 0.41224,94.3141 -11.54435,99.603 -3.57442,1.5813 -6.49997,3.1811 -6.49997,3.5558 0,0.3748 14.88739,0.6823 33.08177,0.6823 21.05154,0 33.0802,-0.5474 33.0802,-1.5042 0,-0.8271 -1.0492,-1.5042 -2.33082,-1.5042 -4.44442,0 -11.16431,-4.5868 -13.80773,-9.4237 -2.45218,-4.4868 -2.65709,-11.4657 -2.65709,-90.5698 v -85.7105 l 17.81532,-0.4251 c 31.43945,-0.7497 42.15256,3.6561 46.67931,19.1956 1.14473,3.9289 2.99743,6.9937 4.39658,7.2686 2.13735,0.4198 2.3278,-1.3312 1.6297,-15.0375 -0.4349,-8.5317 -1.09897,-17.0351 -1.47599,-18.896 l -0.68544,-3.3833 H 469.5769 Z m 261.19399,0 c -29.13198,0 -35.0486,0.9793 -25.67362,4.2476 2.4199,0.8436 5.63441,3.4154 7.14306,5.7157 2.50811,3.8246 2.82105,9.7148 3.65937,68.91 1.00102,70.6745 1.5888,75.6802 10.73028,91.2788 10.36327,17.6839 29.77298,29.2501 55.26699,32.9358 11.85197,1.7134 35.02576,0.1558 45.31313,-3.046 17.42175,-5.4222 31.37454,-17.4011 39.4296,-33.8519 7.44554,-15.2059 8.42902,-24.0785 8.48572,-76.7213 0.0767,-69.8282 1.82561,-81.2 13.11914,-85.2839 2.70791,-0.9792 4.92361,-2.3223 4.92361,-2.9833 0,-0.6609 -10.82564,-1.2015 -24.05805,-1.2015 -24.09155,0 -28.93312,1.1664 -18.77054,4.5205 3.40836,1.1248 6.15307,3.4159 7.71871,6.4435 5.88809,11.3862 6.4781,111.6072 0.79525,135.0845 -4.62455,19.1061 -14.7189,32.3103 -30.15961,39.45 -5.93642,2.7449 -9.71514,3.2139 -25.89792,3.2139 -18.68863,0 -19.08822,-0.073 -29.25457,-5.264 -17.19631,-8.7803 -24.92884,-22.483 -27.84603,-49.3489 -0.90323,-8.3169 -1.3794,-36.7952 -1.11052,-66.4333 0.44037,-48.5341 0.66222,-52.1928 3.44135,-56.7885 1.66216,-2.7486 5.1395,-5.6967 7.89438,-6.6929 2.70815,-0.9792 4.92361,-2.3223 4.92361,-2.9833 0,-0.6609 -13.5331,-1.2015 -30.07334,-1.2015 z m 645.07803,0 c -16.5404,0 -30.0733,0.529 -30.0733,1.1748 0,0.6455 1.958,1.9138 4.351,2.8171 2.3932,0.9033 5.6063,3.5572 7.1415,5.8992 2.6225,4.0012 2.8148,9.3497 3.1904,88.5323 0.3703,78.0624 0.2057,84.6551 -2.2539,89.442 -1.4604,2.8423 -4.8396,6.2252 -7.5086,7.518 -2.669,1.293 -4.8675,2.8586 -4.8875,3.4789 -0.019,0.6203 13.9509,1.1278 31.0427,1.1278 17.0917,0 30.6784,-0.3987 30.1925,-0.8846 -0.4859,-0.486 -3.0887,-2.0084 -5.7831,-3.3833 -2.6945,-1.3749 -6.3008,-4.409 -8.0136,-6.7431 -3.0427,-4.1459 -3.1234,-6.0624 -3.5527,-83.2856 -0.4857,-87.353 -0.097,-92.5522 7.416,-98.8736 2.4919,-2.0969 5.4939,-3.8115 6.6709,-3.8115 1.1771,0 2.141,-0.6772 2.141,-1.5042 0,-0.9523 -11.0266,-1.5042 -30.0733,-1.5042 z m 812.7361,0 c -36.0881,0 -62.4022,0.5723 -62.4022,1.3568 0,0.7461 1.9859,2.0491 4.4139,2.8955 2.4982,0.8709 5.5992,3.7089 7.143,6.5376 2.5435,4.6612 2.7277,10.7423 2.7277,90.0223 0,80.2953 -0.1559,85.2596 -2.792,89.2837 -1.5351,2.3432 -4.7483,5.0006 -7.1415,5.9039 -2.3932,0.9035 -4.3511,2.1697 -4.3511,2.8155 0,0.6457 29.6885,1.1748 65.9753,1.1748 h 65.9769 l 1.7662,-14.661 c 0.9716,-8.0634 2.1576,-17.8758 2.6351,-21.8041 1.1438,-9.4068 -2.215,-9.7193 -5.9824,-0.5568 -4.0136,9.7611 -11.885,18.0759 -20.9131,22.088 -7.3556,3.2692 -9.9674,3.5426 -34.4166,3.5966 -20.2821,0.045 -27.0391,-0.4226 -28.9471,-2.0046 -2.2071,-1.8301 -2.4877,-6.8064 -2.4877,-43.9548 v -41.8906 l 21.4261,0.8047 c 11.7851,0.4418 23.6077,1.1315 26.2712,1.534 5.9909,0.9053 12.9487,6.5871 15.4437,12.611 1.0348,2.4978 2.4761,4.5424 3.2029,4.5424 0.7267,0 1.3207,-10.8272 1.3207,-24.0596 0,-19.8001 -0.3791,-24.058 -2.1395,-24.058 -1.1764,0 -2.8824,2.2562 -3.7926,5.0145 -0.9103,2.7581 -3.7117,6.9879 -6.2255,9.3986 l -4.5723,4.3825 -25.4666,0.4753 -25.4681,0.4752 v -40.8616 -40.8601 l 28.1927,0.6274 c 30.8861,0.6864 36.2593,1.9059 42.3172,9.6072 1.843,2.3429 4.127,7.1619 5.0758,10.7083 0.9484,3.5466 2.5998,6.4482 3.6687,6.4482 1.4853,0 1.9435,-4.4309 1.9435,-18.7956 v -18.7972 z m 180.4401,0 c -16.9539,0 -30.8247,0.5406 -30.8247,1.2015 0,0.661 2.4312,2.0801 5.402,3.1543 10.5363,3.8099 10.3868,2.4347 10.3868,96.3906 0,93.4886 0.2727,91.0309 -10.5107,94.9303 -2.9025,1.0495 -5.2781,2.4496 -5.2781,3.1104 0,0.6609 13.8708,1.2014 30.8247,1.2014 16.954,0 30.8265,-0.5075 30.8105,-1.1277 -0.01,-0.6203 -2.7315,-2.268 -6.0514,-3.6625 -10.8566,-4.5604 -10.625,-2.3496 -10.1452,-97.2188 0.4731,-93.5345 0.01,-89.5527 10.9781,-94.1366 2.8783,-1.2026 5.2342,-2.5591 5.2342,-3.0147 0,-0.4557 -13.8722,-0.8282 -30.8262,-0.8282 z m -483.4305,1.3552 c 0,0.7461 1.9859,2.0491 4.4138,2.8955 2.4982,0.8709 5.5992,3.7089 7.143,6.5376 2.5273,4.6315 2.7573,11.1344 3.1277,88.4539 0.3703,77.2522 0.2026,83.8441 -2.2556,88.7158 -1.495,2.9635 -4.7764,6.2495 -7.51,7.5195 -2.6677,1.2395 -4.866,2.7604 -4.8876,3.3817 -0.016,0.6201 13.6124,1.1278 30.2898,1.1278 16.678,0 29.927,-0.3973 29.4412,-0.8831 -0.486,-0.486 -3.1366,-2.0085 -5.8898,-3.3833 -9.4966,-4.7423 -10.266,-8.497 -10.266,-50.2415 v -37.2164 h 11.8581 c 11.5551,0 11.9873,0.1343 16.9165,5.2138 2.7822,2.8671 13.177,18.1428 23.1013,33.9461 20.5801,32.7713 31.1759,46.4498 38.7692,50.0532 4.0694,1.931 9.6499,2.5112 24.149,2.5112 18.1036,0 25.4334,-1.6921 16.1543,-3.73 -12.1743,-2.674 -24.8921,-16.3123 -46.9993,-50.4014 -6.168,-9.5106 -15.7383,-22.8921 -21.2677,-29.7361 -5.5291,-6.8441 -10.0526,-12.7646 -10.0526,-13.1568 0,-0.3925 1.1832,-0.7134 2.6304,-0.7294 5.0931,-0.028 18.4637,-7.4237 25.7583,-14.2469 10.9105,-10.2058 14.4283,-19.1789 14.4493,-36.8635 0.015,-12.6343 -0.4714,-15.2782 -4.21,-22.891 -7.0001,-14.2554 -20.1664,-22.9426 -40.6624,-26.8297 -9.5522,-1.811 -94.2009,-1.8538 -94.2009,-0.047 z m -258.3079,6.2019 c -8.2575,0.2376 -16.35,1.6527 -21.5265,4.1676 -7.6463,3.7149 -17.0136,12.3418 -20.3328,18.7251 -6.7012,12.888 -5.5128,28.8908 3.5198,47.4118 2.9368,6.0223 5.0789,11.1684 4.7605,11.4345 -0.318,0.2662 -4.4459,2.9278 -9.1728,5.9149 -16.5735,10.4733 -24.5225,20.924 -29.0051,38.134 -3.0065,11.5433 -2.8343,17.8123 0.8109,29.6138 5.6626,18.3339 23.1381,32.924 45.1531,37.6979 24.9756,5.4159 50.8999,-0.1934 70.2182,-15.1943 4.6221,-3.5894 8.8516,-6.5266 9.3986,-6.5266 0.5468,0 5.2299,3.4007 10.4072,7.5556 11.6805,9.3744 16.0439,11.6563 26.0422,13.6258 8.4565,1.6657 32.7038,0.4411 32.7038,-1.6517 0,-0.6887 -2.5375,-2.073 -5.6389,-3.0759 -12.4882,-4.0393 -23.9071,-11.5312 -41.5251,-27.2437 l -7.3172,-6.5251 5.3393,-8.8637 c 5.5884,-9.2769 9.2255,-18.4583 14.4476,-36.4682 3.2765,-11.3003 9.2422,-18.551 15.2618,-18.551 1.8895,0 2.8924,-1.0418 2.8924,-3.0068 0,-2.8855 -1.0028,-3.0085 -24.811,-3.0085 -23.8081,0 -24.8109,0.1226 -24.8109,3.0085 0,2.2294 1.0019,3.0068 3.8742,3.0068 2.3157,0 5.723,1.8472 8.4669,4.5911 4.408,4.408 4.5617,4.9948 3.8414,14.661 -0.7435,9.977 -8.674,33.7791 -11.924,35.7875 -2.7753,1.7153 -54.3959,-51.8288 -69.735,-72.3326 -18.423,-24.6265 -21.6299,-42.3484 -10.0261,-55.416 3.8611,-4.3483 13.8353,-8.4229 20.6183,-8.4229 6.3282,0 17.5476,4.3554 22.3154,8.6629 4.2888,3.8751 9.6046,15.3351 10.7946,23.2707 0.8055,5.3703 1.7081,7.096 3.7127,7.096 2.8873,0 4.5365,-5.4114 4.5205,-14.8492 -0.023,-14.7455 -7.1906,-25.219 -20.7579,-30.3291 -5.8357,-2.198 -14.2587,-3.1378 -22.5161,-2.9002 z m 301.9144,1.1545 18.4192,0.585 c 19.913,0.6329 26.8692,2.8493 36.2267,11.5428 8.7105,8.0926 10.7667,14.3322 10.7287,32.5406 -0.032,14.9101 -0.4237,17.2809 -3.9856,24.0581 -4.9151,9.3527 -8.9862,13.2005 -18.5525,17.5377 -6.0599,2.7474 -10.8923,3.5144 -25.1686,3.9919 l -17.6679,0.5913 v -45.4245 z m -330.1542,89.0263 c 1.0461,0 5.5153,4.2296 9.9319,9.3986 4.4168,5.1689 20.818,22.0461 36.4479,37.5051 l 28.4185,28.1064 -7.2764,4.5989 c -4.0026,2.5293 -11.5789,5.9522 -16.835,7.6058 -16.3636,5.1478 -34.7179,3.4379 -47.4275,-4.417 -13.4377,-8.3049 -23.462,-26.6561 -23.462,-42.9509 0,-10.7467 5.2986,-25.0772 12.1498,-32.8606 3.3825,-3.8429 7.0065,-6.9863 8.0528,-6.9863 z" /><path
         id="path99"
         style="display:inline;fill:#ffd275;fill-opacity:1;stroke-width:0;filter:url(#filter110)"
         d="m 257.94205,1197.3716 c -4.07506,0.1546 -7.93062,0.5563 -11.32162,1.2235 -27.08479,5.3286 -44.89276,24.9575 -44.89276,49.4822 0,25.7251 11.81141,40.1041 55.75323,67.8811 28.45852,17.9893 37.56858,30.5944 35.29025,48.8298 -2.25526,18.0496 -15.9089,29.3608 -36.8525,30.5282 -22.17555,1.2362 -37.78421,-8.629 -48.08158,-30.3871 -3.15751,-6.6719 -6.14129,-13.3141 -6.63016,-14.7614 -0.48848,-1.4472 -1.58607,-2.6319 -2.43905,-2.6319 -1.77988,0 -2.00289,12.7485 -0.55055,31.4097 l 0.98189,12.6141 10.74911,4.9659 c 5.91298,2.732 15.78624,5.9568 21.94053,7.1666 20.99386,4.1269 42.92469,2.1764 57.15863,-5.0852 10.3578,-5.284 21.55991,-16.9455 26.35123,-27.4303 3.62938,-7.9419 4.2758,-11.2876 4.2758,-22.1366 0,-25.8824 -10.89262,-39.4136 -50.89081,-63.2147 -24.40637,-14.5231 -34.79219,-23.1154 -39.2194,-32.445 -8.11818,-17.1082 -1.78091,-35.1994 15.01863,-42.8725 7.46055,-3.4076 24.23274,-3.7235 31.71401,-0.5976 11.14312,4.6557 21.24651,16.3655 24.66977,28.5927 1.18248,4.2225 2.75828,6.7823 4.17698,6.7823 1.95821,0 2.16468,-2.6562 1.46344,-18.8914 -0.44859,-10.3905 -1.17855,-19.2543 -1.62186,-19.6975 -0.44331,-0.4435 -5.41869,-2.4885 -11.05653,-4.544 -9.55996,-3.4856 -23.76152,-5.2447 -35.98668,-4.7809 z m 2204.88865,0.071 c -9.0658,-0.5091 -18.1495,0.071 -25.1466,1.8571 -23.1695,5.9139 -38.2009,21.6049 -41.3604,43.1753 -1.1252,7.6812 1.3023,22.0522 4.9126,29.082 4.8839,9.5098 19.5955,22.5333 43.6662,38.6532 35.6235,23.8567 42.31,31.7117 42.38,49.7803 0.079,20.7457 -13.0822,33.8717 -35.4236,35.331 -26.0157,1.6996 -43.1783,-10.8658 -53.5306,-39.1912 -4.8719,-13.3299 -6.5865,-10.3706 -5.9228,10.2158 0.3154,9.7804 1.0317,19.4961 1.5921,21.5908 1.5969,5.9716 14.2086,11.6983 35.4251,16.0836 17.9957,3.7196 39.9185,1.5226 54.3071,-5.4428 9.8812,-4.7835 20.4745,-15.1473 25.3662,-24.8156 6.0629,-11.9831 7.0849,-30.4876 2.3731,-42.9839 -6.6575,-17.6562 -15.7208,-26.0884 -50.0328,-46.5507 -31.1558,-18.5802 -40.4554,-29.0304 -40.6044,-45.6299 -0.1697,-18.8947 13.6543,-31.1682 35.1052,-31.1682 8.3442,0 11.6065,0.7721 18.0333,4.268 9.4619,5.1469 15.2843,12.0863 20.0975,23.9545 1.9815,4.8851 4.6535,9.1004 5.9369,9.3672 2.0486,0.4255 2.219,-1.7788 1.396,-18.0443 -0.5155,-10.1911 -1.4479,-19.0905 -2.0705,-19.7775 -0.6228,-0.6872 -5.7787,-2.9726 -11.4596,-5.0789 -6.9257,-2.5679 -15.9742,-4.1667 -25.04,-4.6758 z m -1517.71454,0.096 c -40.7317,-2.2524 -67.07551,17.9867 -67.04191,51.5072 0.0239,23.9675 9.77812,36.8319 45.77114,60.3631 13.01313,8.5076 26.8177,18.3675 30.67722,21.9108 22.40333,20.5691 17.16,53.0654 -10.01974,62.0932 -9.99636,3.3202 -26.31916,2.4087 -36.43057,-2.0344 -12.40706,-5.4517 -20.51418,-15.5542 -29.64827,-36.9466 -2.21826,-5.1951 -3.62695,-6.9185 -4.74479,-5.8004 -2.05625,2.056 0.79343,40.3655 3.22018,43.2897 2.35145,2.8332 19.77715,9.4251 31.5556,11.9365 31.68906,6.7562 61.97968,-2.3083 76.77931,-22.9758 7.94346,-11.093 10.99134,-21.8146 10.10915,-35.5631 -1.53742,-23.9544 -12.70112,-37.1806 -50.05635,-59.3044 -35.26481,-20.8855 -42.84584,-29.2511 -42.84584,-47.2769 0,-19.1079 13.17067,-31.0427 34.25816,-31.0427 12.67406,0 19.69334,2.785 28.34796,11.2463 5.69499,5.5678 8.61543,10.0311 11.12242,16.9997 1.86967,5.1976 4.09671,9.2167 4.94869,8.9327 2.22708,-0.7425 1.34339,-35.9084 -0.95993,-38.1951 -3.78233,-3.7552 -21.57142,-8.3949 -35.04243,-9.1398 z m 187.38704,0.4517 c -21.1214,0.078 -30.5991,2.7017 -42.5274,11.7718 -13.3851,10.1774 -20.9604,29.916 -17.8734,46.5695 3.8263,20.644 14.0685,32.372 47.1514,53.9871 26.3072,17.188 35.0623,24.8842 39.7763,34.9624 12.6048,26.9481 -7.7108,52.3825 -39.9472,50.0125 -19.8686,-1.4608 -32.3232,-11.2124 -43.1643,-33.8002 -3.864,-8.0509 -7.3946,-13.6244 -8.2834,-13.0752 -0.9963,0.6158 -1.2189,6.1316 -0.6227,15.4515 1.5446,24.1423 2.1525,27.0829 6.1204,29.6828 5.099,3.3408 22.9496,9.3486 32.4858,10.9326 36.1331,6.0015 67.1439,-6.7512 79.2575,-32.5939 3.468,-7.3989 4.0155,-10.5113 4.0155,-22.8503 0,-12.4236 -0.5361,-15.4291 -4.1143,-23.0668 -6.0997,-13.0208 -18.0427,-23.6432 -44.1069,-39.2272 -27.3846,-16.3733 -34.8936,-22.4113 -40.3597,-32.4544 -3.7161,-6.8284 -4.1505,-8.987 -3.6374,-18.0694 0.4963,-8.7822 1.2629,-11.1568 5.1667,-15.9801 7.204,-8.9009 15.5461,-12.5482 28.6946,-12.5482 8.7571,0 12.5825,0.7626 18.1823,3.6248 11.3924,5.8226 20.4537,17.3774 23.4762,29.9385 0.5613,2.3331 1.7912,3.9844 2.7339,3.6703 2.11,-0.7034 1.6728,-35.5826 -0.4784,-38.1747 -0.7818,-0.9419 -6.3111,-3.3156 -12.2863,-5.2734 -9.1497,-2.998 -13.8289,-3.548 -29.6592,-3.49 z m -746.88162,3.6892 -0.96464,12.4055 c -1.50592,19.345 -1.26658,25.1873 1.03366,25.1873 1.10954,0 2.86413,-2.8268 3.89935,-6.2819 4.91256,-16.3967 10.20831,-18.9433 42.12432,-20.2591 l 24.1349,-0.996 v 86.0932 c 0,97.8633 0.41224,94.3141 -11.54435,99.603 -3.57442,1.5813 -6.49997,3.1811 -6.49997,3.5558 0,0.3748 14.88739,0.6823 33.08177,0.6823 21.05154,0 33.0802,-0.5474 33.0802,-1.5042 0,-0.8271 -1.0492,-1.5042 -2.33082,-1.5042 -4.44442,0 -11.16431,-4.5868 -13.80773,-9.4237 -2.45218,-4.4868 -2.65709,-11.4657 -2.65709,-90.5698 v -85.7105 l 17.81532,-0.4251 c 31.43945,-0.7497 42.15256,3.6561 46.67931,19.1956 1.14473,3.9289 2.99743,6.9937 4.39658,7.2686 2.13735,0.4198 2.3278,-1.3312 1.6297,-15.0375 -0.4349,-8.5317 -1.09897,-17.0351 -1.47599,-18.896 l -0.68544,-3.3833 H 469.5769 Z m 261.19399,0 c -29.13198,0 -35.0486,0.9793 -25.67362,4.2476 2.4199,0.8436 5.63441,3.4154 7.14306,5.7157 2.50811,3.8246 2.82105,9.7148 3.65937,68.91 1.00102,70.6745 1.5888,75.6802 10.73028,91.2788 10.36327,17.6839 29.77298,29.2501 55.26699,32.9358 11.85197,1.7134 35.02576,0.1558 45.31313,-3.046 17.42175,-5.4222 31.37454,-17.4011 39.4296,-33.8519 7.44554,-15.2059 8.42902,-24.0785 8.48572,-76.7213 0.0767,-69.8282 1.82561,-81.2 13.11914,-85.2839 2.70791,-0.9792 4.92361,-2.3223 4.92361,-2.9833 0,-0.6609 -10.82564,-1.2015 -24.05805,-1.2015 -24.09155,0 -28.93312,1.1664 -18.77054,4.5205 3.40836,1.1248 6.15307,3.4159 7.71871,6.4435 5.88809,11.3862 6.4781,111.6072 0.79525,135.0845 -4.62455,19.1061 -14.7189,32.3103 -30.15961,39.45 -5.93642,2.7449 -9.71514,3.2139 -25.89792,3.2139 -18.68863,0 -19.08822,-0.073 -29.25457,-5.264 -17.19631,-8.7803 -24.92884,-22.483 -27.84603,-49.3489 -0.90323,-8.3169 -1.3794,-36.7952 -1.11052,-66.4333 0.44037,-48.5341 0.66222,-52.1928 3.44135,-56.7885 1.66216,-2.7486 5.1395,-5.6967 7.89438,-6.6929 2.70815,-0.9792 4.92361,-2.3223 4.92361,-2.9833 0,-0.6609 -13.5331,-1.2015 -30.07334,-1.2015 z m 645.07803,0 c -16.5404,0 -30.0733,0.529 -30.0733,1.1748 0,0.6455 1.958,1.9138 4.351,2.8171 2.3932,0.9033 5.6063,3.5572 7.1415,5.8992 2.6225,4.0012 2.8148,9.3497 3.1904,88.5323 0.3703,78.0624 0.2057,84.6551 -2.2539,89.442 -1.4604,2.8423 -4.8396,6.2252 -7.5086,7.518 -2.669,1.293 -4.8675,2.8586 -4.8875,3.4789 -0.019,0.6203 13.9509,1.1278 31.0427,1.1278 17.0917,0 30.6784,-0.3987 30.1925,-0.8846 -0.4859,-0.486 -3.0887,-2.0084 -5.7831,-3.3833 -2.6945,-1.3749 -6.3008,-4.409 -8.0136,-6.7431 -3.0427,-4.1459 -3.1234,-6.0624 -3.5527,-83.2856 -0.4857,-87.353 -0.097,-92.5522 7.416,-98.8736 2.4919,-2.0969 5.4939,-3.8115 6.6709,-3.8115 1.1771,0 2.141,-0.6772 2.141,-1.5042 0,-0.9523 -11.0266,-1.5042 -30.0733,-1.5042 z m 812.7361,0 c -36.0881,0 -62.4022,0.5723 -62.4022,1.3568 0,0.7461 1.9859,2.0491 4.4139,2.8955 2.4982,0.8709 5.5992,3.7089 7.143,6.5376 2.5435,4.6612 2.7277,10.7423 2.7277,90.0223 0,80.2953 -0.1559,85.2596 -2.792,89.2837 -1.5351,2.3432 -4.7483,5.0006 -7.1415,5.9039 -2.3932,0.9035 -4.3511,2.1697 -4.3511,2.8155 0,0.6457 29.6885,1.1748 65.9753,1.1748 h 65.9769 l 1.7662,-14.661 c 0.9716,-8.0634 2.1576,-17.8758 2.6351,-21.8041 1.1438,-9.4068 -2.215,-9.7193 -5.9824,-0.5568 -4.0136,9.7611 -11.885,18.0759 -20.9131,22.088 -7.3556,3.2692 -9.9674,3.5426 -34.4166,3.5966 -20.2821,0.045 -27.0391,-0.4226 -28.9471,-2.0046 -2.2071,-1.8301 -2.4877,-6.8064 -2.4877,-43.9548 v -41.8906 l 21.4261,0.8047 c 11.7851,0.4418 23.6077,1.1315 26.2712,1.534 5.9909,0.9053 12.9487,6.5871 15.4437,12.611 1.0348,2.4978 2.4761,4.5424 3.2029,4.5424 0.7267,0 1.3207,-10.8272 1.3207,-24.0596 0,-19.8001 -0.3791,-24.058 -2.1395,-24.058 -1.1764,0 -2.8824,2.2562 -3.7926,5.0145 -0.9103,2.7581 -3.7117,6.9879 -6.2255,9.3986 l -4.5723,4.3825 -25.4666,0.4753 -25.4681,0.4752 v -40.8616 -40.8601 l 28.1927,0.6274 c 30.8861,0.6864 36.2593,1.9059 42.3172,9.6072 1.843,2.3429 4.127,7.1619 5.0758,10.7083 0.9484,3.5466 2.5998,6.4482 3.6687,6.4482 1.4853,0 1.9435,-4.4309 1.9435,-18.7956 v -18.7972 z m 180.4401,0 c -16.9539,0 -30.8247,0.5406 -30.8247,1.2015 0,0.661 2.4312,2.0801 5.402,3.1543 10.5363,3.8099 10.3868,2.4347 10.3868,96.3906 0,93.4886 0.2727,91.0309 -10.5107,94.9303 -2.9025,1.0495 -5.2781,2.4496 -5.2781,3.1104 0,0.6609 13.8708,1.2014 30.8247,1.2014 16.954,0 30.8265,-0.5075 30.8105,-1.1277 -0.01,-0.6203 -2.7315,-2.268 -6.0514,-3.6625 -10.8566,-4.5604 -10.625,-2.3496 -10.1452,-97.2188 0.4731,-93.5345 0.01,-89.5527 10.9781,-94.1366 2.8783,-1.2026 5.2342,-2.5591 5.2342,-3.0147 0,-0.4557 -13.8722,-0.8282 -30.8262,-0.8282 z m -483.4305,1.3552 c 0,0.7461 1.9859,2.0491 4.4138,2.8955 2.4982,0.8709 5.5992,3.7089 7.143,6.5376 2.5273,4.6315 2.7573,11.1344 3.1277,88.4539 0.3703,77.2522 0.2026,83.8441 -2.2556,88.7158 -1.495,2.9635 -4.7764,6.2495 -7.51,7.5195 -2.6677,1.2395 -4.866,2.7604 -4.8876,3.3817 -0.016,0.6201 13.6124,1.1278 30.2898,1.1278 16.678,0 29.927,-0.3973 29.4412,-0.8831 -0.486,-0.486 -3.1366,-2.0085 -5.8898,-3.3833 -9.4966,-4.7423 -10.266,-8.497 -10.266,-50.2415 v -37.2164 h 11.8581 c 11.5551,0 11.9873,0.1343 16.9165,5.2138 2.7822,2.8671 13.177,18.1428 23.1013,33.9461 20.5801,32.7713 31.1759,46.4498 38.7692,50.0532 4.0694,1.931 9.6499,2.5112 24.149,2.5112 18.1036,0 25.4334,-1.6921 16.1543,-3.73 -12.1743,-2.674 -24.8921,-16.3123 -46.9993,-50.4014 -6.168,-9.5106 -15.7383,-22.8921 -21.2677,-29.7361 -5.5291,-6.8441 -10.0526,-12.7646 -10.0526,-13.1568 0,-0.3925 1.1832,-0.7134 2.6304,-0.7294 5.0931,-0.028 18.4637,-7.4237 25.7583,-14.2469 10.9105,-10.2058 14.4283,-19.1789 14.4493,-36.8635 0.015,-12.6343 -0.4714,-15.2782 -4.21,-22.891 -7.0001,-14.2554 -20.1664,-22.9426 -40.6624,-26.8297 -9.5522,-1.811 -94.2009,-1.8538 -94.2009,-0.047 z m -258.3079,6.2019 c -8.2575,0.2376 -16.35,1.6527 -21.5265,4.1676 -7.6463,3.7149 -17.0136,12.3418 -20.3328,18.7251 -6.7012,12.888 -5.5128,28.8908 3.5198,47.4118 2.9368,6.0223 5.0789,11.1684 4.7605,11.4345 -0.318,0.2662 -4.4459,2.9278 -9.1728,5.9149 -16.5735,10.4733 -24.5225,20.924 -29.0051,38.134 -3.0065,11.5433 -2.8343,17.8123 0.8109,29.6138 5.6626,18.3339 23.1381,32.924 45.1531,37.6979 24.9756,5.4159 50.8999,-0.1934 70.2182,-15.1943 4.6221,-3.5894 8.8516,-6.5266 9.3986,-6.5266 0.5468,0 5.2299,3.4007 10.4072,7.5556 11.6805,9.3744 16.0439,11.6563 26.0422,13.6258 8.4565,1.6657 32.7038,0.4411 32.7038,-1.6517 0,-0.6887 -2.5375,-2.073 -5.6389,-3.0759 -12.4882,-4.0393 -23.9071,-11.5312 -41.5251,-27.2437 l -7.3172,-6.5251 5.3393,-8.8637 c 5.5884,-9.2769 9.2255,-18.4583 14.4476,-36.4682 3.2765,-11.3003 9.2422,-18.551 15.2618,-18.551 1.8895,0 2.8924,-1.0418 2.8924,-3.0068 0,-2.8855 -1.0028,-3.0085 -24.811,-3.0085 -23.8081,0 -24.8109,0.1226 -24.8109,3.0085 0,2.2294 1.0019,3.0068 3.8742,3.0068 2.3157,0 5.723,1.8472 8.4669,4.5911 4.408,4.408 4.5617,4.9948 3.8414,14.661 -0.7435,9.977 -8.674,33.7791 -11.924,35.7875 -2.7753,1.7153 -54.3959,-51.8288 -69.735,-72.3326 -18.423,-24.6265 -21.6299,-42.3484 -10.0261,-55.416 3.8611,-4.3483 13.8353,-8.4229 20.6183,-8.4229 6.3282,0 17.5476,4.3554 22.3154,8.6629 4.2888,3.8751 9.6046,15.3351 10.7946,23.2707 0.8055,5.3703 1.7081,7.096 3.7127,7.096 2.8873,0 4.5365,-5.4114 4.5205,-14.8492 -0.023,-14.7455 -7.1906,-25.219 -20.7579,-30.3291 -5.8357,-2.198 -14.2587,-3.1378 -22.5161,-2.9002 z m 301.9144,1.1545 18.4192,0.585 c 19.913,0.6329 26.8692,2.8493 36.2267,11.5428 8.7105,8.0926 10.7667,14.3322 10.7287,32.5406 -0.032,14.9101 -0.4237,17.2809 -3.9856,24.0581 -4.9151,9.3527 -8.9862,13.2005 -18.5525,17.5377 -6.0599,2.7474 -10.8923,3.5144 -25.1686,3.9919 l -17.6679,0.5913 v -45.4245 z m -330.1542,89.0263 c 1.0461,0 5.5153,4.2296 9.9319,9.3986 4.4168,5.1689 20.818,22.0461 36.4479,37.5051 l 28.4185,28.1064 -7.2764,4.5989 c -4.0026,2.5293 -11.5789,5.9522 -16.835,7.6058 -16.3636,5.1478 -34.7179,3.4379 -47.4275,-4.417 -13.4377,-8.3049 -23.462,-26.6561 -23.462,-42.9509 0,-10.7467 5.2986,-25.0772 12.1498,-32.8606 3.3825,-3.8429 7.0065,-6.9863 8.0528,-6.9863 z" /></g></g></svg>
